<svg width="1440" height="2016" viewBox="0 0 1440 2016" fill="none" xmlns="http://www.w3.org/2000/svg">
<path d="M1575.24 179.762C1574.9 179.416 1574.52 179.138 1574.17 178.792C1574.52 179.208 1574.9 179.623 1575.24 180.039C1575.59 180.386 1575.94 180.732 1576.28 181.148C1575.94 180.663 1575.59 180.247 1575.24 179.762ZM-144.96 540.02C-145.421 539.327 -145.882 538.634 -146.381 537.941C-146.726 537.595 -147.072 537.248 -147.418 536.902C-146.88 537.595 -146.381 538.288 -145.843 538.981C-145.536 539.396 -145.267 539.673 -144.96 540.02ZM1563.34 167.774C1562.96 167.497 1562.57 167.151 1562.19 166.873C1562.53 167.22 1562.88 167.566 1563.26 167.913C1563.65 168.259 1564.07 168.606 1564.45 169.022C1564.07 168.537 1563.72 168.19 1563.34 167.774ZM1569.75 172.833C1568.87 172.14 1567.95 171.447 1567.07 170.754C1567.91 171.724 1568.76 172.694 1569.6 173.664C1570.48 174.496 1571.37 175.258 1572.25 176.02C1571.44 174.912 1570.6 173.872 1569.75 172.833ZM-139.085 546.741C-139.93 545.425 -140.774 544.039 -141.619 542.722C-142.272 542.099 -142.925 541.406 -143.616 540.713C-142.733 541.96 -141.888 543.277 -141.005 544.524C-140.352 545.286 -139.699 545.979 -139.085 546.741ZM-135.322 552.701C-135.667 552.146 -136.051 551.523 -136.435 550.968C-136.742 550.622 -137.05 550.275 -137.357 549.929C-136.973 550.483 -136.589 551.038 -136.243 551.592C-135.898 551.938 -135.59 552.285 -135.322 552.701ZM1550.75 157.172C1550.36 156.964 1550.02 156.687 1549.63 156.479C1549.98 156.757 1550.32 157.103 1550.71 157.38C1551.05 157.657 1551.44 157.935 1551.82 158.142C1551.44 157.865 1551.09 157.45 1550.75 157.172ZM1556.97 160.983C1556.01 160.36 1555.08 159.806 1554.12 159.251C1555.01 160.083 1555.89 160.914 1556.77 161.746C1557.7 162.439 1558.66 163.062 1559.58 163.755C1558.69 162.854 1557.81 161.884 1556.97 160.983ZM1563.99 165.695C1562.61 164.795 1561.27 163.825 1559.88 162.924C1561.11 164.24 1562.38 165.557 1563.61 166.873C1564.92 167.844 1566.22 168.883 1567.53 169.922C1566.34 168.537 1565.18 167.151 1563.99 165.695ZM-133.594 552.978C-134.784 550.968 -135.974 548.959 -137.165 546.949C-137.933 546.187 -138.701 545.494 -139.507 544.801C-138.355 546.603 -137.242 548.404 -136.09 550.137C-135.245 551.107 -134.4 552.077 -133.594 552.978ZM-129.101 560.531C-129.869 559.214 -130.675 557.898 -131.482 556.512C-132.134 555.819 -132.787 555.057 -133.44 554.294C-132.634 555.542 -131.866 556.789 -131.059 558.036C-130.368 558.937 -129.754 559.769 -129.101 560.531ZM-125.491 566.629C-125.722 566.213 -125.952 565.866 -126.182 565.451C-126.451 565.104 -126.758 564.688 -127.027 564.342C-126.835 564.619 -126.643 564.896 -126.49 565.243C-126.182 565.659 -125.837 566.144 -125.491 566.629ZM1537.04 147.887C1536.65 147.679 1536.23 147.541 1535.85 147.333C1536.23 147.541 1536.58 147.818 1536.96 148.095C1537.34 148.303 1537.77 148.511 1538.15 148.788C1537.8 148.441 1537.42 148.164 1537.04 147.887ZM1543.95 151.213C1542.8 150.659 1541.68 150.035 1540.53 149.481C1541.41 150.174 1542.34 150.867 1543.22 151.56C1544.41 152.253 1545.56 152.945 1546.75 153.708C1545.83 152.876 1544.91 152.045 1543.95 151.213ZM1551.13 154.816C1549.75 154.123 1548.36 153.43 1546.98 152.738C1548.33 153.916 1549.63 155.024 1550.98 156.272C1552.2 157.034 1553.43 157.796 1554.62 158.489C1553.47 157.242 1552.32 156.064 1551.13 154.816ZM1558 158.558C1556.47 157.657 1554.93 156.826 1553.4 155.994C1554.66 157.311 1555.93 158.697 1557.2 160.083C1558.77 161.053 1560.35 162.161 1561.92 163.27C1560.61 161.676 1559.31 160.083 1558 158.558ZM-128.448 558.66C-129.83 556.165 -131.251 553.671 -132.634 551.176C-133.517 550.345 -134.438 549.513 -135.322 548.682C-133.901 551.038 -132.518 553.463 -131.098 555.819C-130.253 556.789 -129.37 557.69 -128.448 558.66ZM-123.341 567.807C-124.493 565.728 -125.683 563.649 -126.835 561.57C-127.603 560.739 -128.371 559.907 -129.139 559.076C-128.026 560.947 -126.912 562.818 -125.837 564.619C-125.03 565.728 -124.186 566.767 -123.341 567.807ZM-118.925 575.775C-119.616 574.528 -120.346 573.212 -121.037 571.964C-121.651 571.202 -122.304 570.301 -122.957 569.539C-122.266 570.717 -121.574 571.895 -120.883 573.073C-120.23 573.974 -119.578 574.875 -118.925 575.775ZM-115.507 581.873L-115.776 581.458C-115.93 581.25 -116.083 581.042 -116.237 580.834L-116.083 581.042L-115.507 581.873ZM1522.64 140.334C1522.21 140.195 1521.79 140.126 1521.37 139.988C1521.75 140.195 1522.14 140.403 1522.52 140.542C1522.94 140.68 1523.37 140.888 1523.79 141.027C1523.44 140.819 1523.06 140.611 1522.64 140.334ZM1530.28 143.036C1529.16 142.621 1528.05 142.205 1526.9 141.858C1527.9 142.482 1528.9 143.036 1529.89 143.66C1531.05 144.145 1532.16 144.699 1533.31 145.185C1532.31 144.422 1531.32 143.729 1530.28 143.036ZM1537.65 145.67C1536.23 145.115 1534.77 144.63 1533.35 144.076C1534.62 144.977 1535.92 145.947 1537.19 146.917C1538.5 147.541 1539.8 148.095 1541.11 148.719C1539.99 147.748 1538.84 146.64 1537.65 145.67ZM1544.87 148.58C1543.26 147.887 1541.68 147.263 1540.07 146.64C1541.45 147.818 1542.84 149.065 1544.18 150.243C1545.79 151.005 1547.4 151.837 1549.02 152.668C1547.6 151.282 1546.25 149.966 1544.87 148.58ZM1552.05 151.629C1550.28 150.867 1548.56 150.174 1546.79 149.411C1548.29 150.936 1549.82 152.391 1551.32 153.916C1552.97 154.747 1554.62 155.648 1556.28 156.549C1554.89 154.886 1553.47 153.223 1552.05 151.629ZM-123.648 563.857C-125.107 561.085 -126.566 558.313 -128.064 555.472C-129.062 554.572 -130.022 553.601 -131.021 552.701C-129.523 555.403 -128.026 558.106 -126.528 560.739C-125.568 561.847 -124.608 562.818 -123.648 563.857ZM-118.195 574.251C-119.539 571.687 -120.922 569.123 -122.266 566.559C-123.149 565.589 -124.032 564.688 -124.915 563.718C-123.494 566.213 -122.112 568.777 -120.691 571.271C-119.846 572.241 -119.04 573.212 -118.195 574.251ZM-113.126 583.883C-114.24 581.804 -115.354 579.656 -116.467 577.508C-117.197 576.607 -117.926 575.775 -118.656 574.875C-117.581 576.815 -116.506 578.755 -115.43 580.626C-114.662 581.735 -113.856 582.843 -113.126 583.883ZM-108.826 591.99C-109.478 590.812 -110.093 589.634 -110.746 588.387C-111.245 587.694 -111.782 587.001 -112.282 586.308C-111.706 587.347 -111.13 588.387 -110.554 589.357C-109.978 590.188 -109.402 591.089 -108.826 591.99ZM1508.12 134.998C1507.66 134.929 1507.16 134.79 1506.7 134.721L1507.39 134.929C1507.85 135.068 1508.31 135.137 1508.74 135.276C1508.54 135.206 1508.31 135.068 1508.12 134.998ZM1515.88 136.523C1514.76 136.315 1513.69 136.107 1512.58 135.83C1513.73 136.315 1514.84 136.8 1515.99 137.285C1517.03 137.562 1518.11 137.909 1519.14 138.186C1518.07 137.701 1516.95 137.146 1515.88 136.523ZM1523.67 138.394C1522.14 137.978 1520.6 137.562 1519.07 137.216C1520.29 137.909 1521.56 138.671 1522.79 139.364C1524.29 139.849 1525.82 140.403 1527.36 140.958C1526.13 140.126 1524.9 139.225 1523.67 138.394ZM1531.01 140.265C1529.36 139.849 1527.74 139.433 1526.09 139.017C1527.55 139.988 1528.97 141.027 1530.43 142.066C1532.08 142.621 1533.7 143.175 1535.31 143.799C1533.93 142.551 1532.47 141.443 1531.01 140.265ZM1538.76 142.551C1536.84 141.928 1534.92 141.304 1533.04 140.75C1534.66 142.066 1536.27 143.314 1537.88 144.699C1539.61 145.392 1541.38 146.085 1543.1 146.848C1541.64 145.462 1540.22 143.937 1538.76 142.551ZM1545.95 144.838C1544.14 144.284 1542.34 143.729 1540.49 143.175C1542.03 144.63 1543.53 146.224 1545.06 147.748C1546.87 148.511 1548.67 149.204 1550.48 149.966C1548.98 148.164 1547.44 146.501 1545.95 144.838ZM-118.771 569.123C-120.307 566.074 -121.805 563.025 -123.341 559.977C-124.416 559.006 -125.491 557.967 -126.566 556.928C-125.03 559.907 -123.456 562.818 -121.92 565.728C-120.883 566.837 -119.846 567.945 -118.771 569.123ZM-113.318 580.141C-114.739 577.369 -116.16 574.459 -117.542 571.618C-118.541 570.578 -119.501 569.47 -120.499 568.43C-119.04 571.202 -117.581 573.974 -116.122 576.746C-115.2 577.854 -114.24 578.963 -113.318 580.141ZM-107.674 591.159C-109.056 588.456 -110.4 585.823 -111.782 583.121C-112.666 582.081 -113.549 581.042 -114.394 579.933C-113.05 582.497 -111.706 585.061 -110.4 587.555C-109.478 588.803 -108.595 589.981 -107.674 591.159ZM-102.182 601.968L-105.715 594.97C-106.522 593.93 -107.29 592.891 -108.096 591.782C-106.906 593.93 -105.754 596.078 -104.602 598.296C-103.834 599.474 -102.989 600.79 -102.182 601.968ZM-97.728 610.769C-98.4192 609.452 -99.072 608.136 -99.7632 606.819C-100.186 606.195 -100.646 605.572 -101.069 604.948C-100.378 606.195 -99.6864 607.512 -98.9952 608.759C-98.5728 609.383 -98.1504 610.076 -97.728 610.769ZM1492.88 131.534C1492.57 131.534 1492.26 131.464 1491.96 131.464C1492.49 131.534 1492.99 131.603 1493.53 131.672L1492.88 131.534ZM1500.75 131.949C1499.64 131.88 1498.56 131.811 1497.45 131.742C1498.6 132.088 1499.71 132.365 1500.86 132.712C1501.9 132.85 1502.98 132.989 1504.01 133.197C1502.94 132.781 1501.86 132.365 1500.75 131.949ZM1508.97 132.85C1507.47 132.712 1505.93 132.504 1504.44 132.365C1505.7 132.85 1506.97 133.474 1508.2 134.028C1509.73 134.305 1511.27 134.652 1512.81 134.929C1511.58 134.236 1510.27 133.543 1508.97 132.85ZM1516.68 133.82C1514.92 133.543 1513.19 133.335 1511.46 133.127C1512.96 133.89 1514.5 134.721 1515.99 135.553C1517.76 135.968 1519.49 136.315 1521.25 136.731C1519.76 135.691 1518.22 134.79 1516.68 133.82ZM1524.71 135.137C1522.79 134.79 1520.87 134.513 1518.95 134.167C1520.56 135.206 1522.21 136.246 1523.83 137.354C1525.59 137.77 1527.4 138.255 1529.16 138.74C1527.71 137.562 1526.21 136.315 1524.71 135.137ZM1532.28 136.592C1530.32 136.176 1528.36 135.761 1526.44 135.414C1528.01 136.661 1529.63 137.978 1531.2 139.295C1533.16 139.849 1535.12 140.403 1537.11 141.027C1535.5 139.502 1533.89 138.047 1532.28 136.592ZM1540.07 138.324C1538 137.839 1535.96 137.424 1533.89 136.939C1535.58 138.532 1537.27 139.988 1538.96 141.651C1540.84 142.274 1542.76 142.829 1544.64 143.452C1543.14 141.72 1541.61 139.918 1540.07 138.324ZM-113.971 574.251C-115.584 570.856 -117.235 567.391 -118.848 563.926C-119.885 562.956 -120.922 562.125 -121.997 561.154C-120.422 564.342 -118.81 567.599 -117.235 570.786C-116.122 571.964 -115.046 573.142 -113.971 574.251ZM-108.173 586.308C-109.747 583.051 -111.283 579.864 -112.858 576.676C-113.894 575.568 -114.97 574.39 -116.006 573.281C-114.47 576.33 -112.973 579.379 -111.475 582.358C-110.323 583.675 -109.248 584.992 -108.173 586.308ZM-102.451 598.157C-103.91 595.178 -105.331 592.198 -106.79 589.149C-107.827 587.902 -108.864 586.655 -109.862 585.407C-108.365 588.318 -106.906 591.228 -105.408 594.138C-104.41 595.524 -103.411 596.841 -102.451 598.157ZM-96.8832 609.66C-98.1888 607.027 -99.456 604.324 -100.762 601.622C-101.645 600.444 -102.566 599.266 -103.45 598.019C-102.106 600.652 -100.723 603.354 -99.3792 605.987C-98.5728 607.235 -97.728 608.413 -96.8832 609.66ZM-91.6224 620.539C-92.6976 618.322 -93.7728 616.104 -94.8864 613.818C-95.5776 612.778 -96.2688 611.808 -96.9984 610.769C-95.8464 613.055 -94.6944 615.342 -93.5424 617.56C-92.8896 618.599 -92.2368 619.569 -91.6224 620.539ZM-86.5536 630.795C-87.3216 629.27 -88.0512 627.746 -88.7808 626.221C-89.2416 625.459 -89.7024 624.766 -90.1632 624.073C-89.3952 625.528 -88.6656 626.983 -87.8976 628.439C-87.4752 629.201 -87.0144 630.032 -86.5536 630.795ZM1476.75 130.079C1476.52 130.079 1476.33 130.148 1476.1 130.148C1476.6 130.148 1477.13 130.148 1477.63 130.217C1477.36 130.148 1477.06 130.079 1476.75 130.079ZM1485.43 129.524C1484.16 129.593 1482.89 129.593 1481.63 129.663C1482.66 129.801 1483.66 130.009 1484.7 130.148C1485.93 130.148 1487.12 130.217 1488.35 130.217C1487.35 130.009 1486.39 129.732 1485.43 129.524ZM1493.49 129.247C1491.96 129.316 1490.46 129.386 1488.92 129.386C1490.27 129.732 1491.57 130.148 1492.92 130.494C1494.45 130.564 1495.99 130.633 1497.52 130.771C1496.18 130.217 1494.84 129.732 1493.49 129.247ZM1501.82 129.316C1499.94 129.247 1498.02 129.178 1496.14 129.178C1497.72 129.732 1499.29 130.356 1500.86 130.979C1502.78 131.118 1504.7 131.395 1506.62 131.603C1505.01 130.771 1503.4 130.079 1501.82 129.316ZM1509.93 129.524C1508.01 129.455 1506.09 129.455 1504.13 129.386C1505.78 130.217 1507.43 131.049 1509.08 131.88C1510.92 132.088 1512.73 132.227 1514.53 132.504C1513.04 131.464 1511.46 130.425 1509.93 129.524ZM1517.99 130.079C1515.96 129.871 1513.88 129.732 1511.85 129.593C1513.5 130.633 1515.19 131.742 1516.84 132.781C1518.87 133.058 1520.95 133.474 1523.02 133.82C1521.33 132.573 1519.64 131.326 1517.99 130.079ZM1526.02 130.841C1523.87 130.633 1521.75 130.425 1519.64 130.217C1521.41 131.534 1523.14 132.781 1524.9 134.167C1526.9 134.513 1528.86 134.86 1530.85 135.276C1529.24 133.82 1527.63 132.227 1526.02 130.841ZM1533.81 131.811C1531.7 131.534 1529.55 131.187 1527.48 130.979C1529.13 132.435 1530.82 134.028 1532.47 135.553C1534.58 135.968 1536.69 136.454 1538.84 136.939C1537.15 135.206 1535.46 133.543 1533.81 131.811ZM-109.056 579.448C-110.822 575.568 -112.589 571.756 -114.394 567.876C-115.469 566.906 -116.544 566.005 -117.658 565.035C-115.93 568.707 -114.202 572.311 -112.512 575.914C-111.322 577.092 -110.208 578.27 -109.056 579.448ZM-103.066 592.475C-104.755 588.872 -106.406 585.269 -108.096 581.596C-109.171 580.487 -110.246 579.448 -111.322 578.27C-109.67 581.665 -108.058 584.992 -106.445 588.387C-105.293 589.773 -104.179 591.159 -103.066 592.475ZM-97.2288 605.087C-98.7648 601.83 -100.262 598.504 -101.798 595.178C-102.874 593.93 -103.949 592.544 -105.024 591.297C-103.488 594.485 -101.952 597.672 -100.416 600.86C-99.3792 602.246 -98.304 603.631 -97.2288 605.087ZM-91.6224 617.282C-93.0048 614.303 -94.3872 611.254 -95.808 608.274C-96.8064 606.958 -97.8048 605.641 -98.8032 604.324C-97.3824 607.304 -95.9616 610.214 -94.5408 613.125C-93.5424 614.511 -92.5824 615.896 -91.6224 617.282ZM-85.824 629.547C-87.1296 626.776 -88.4352 624.004 -89.7408 621.232C-90.6624 619.915 -91.584 618.599 -92.4672 617.282C-91.1232 620.054 -89.7792 622.687 -88.4736 625.459C-87.5904 626.845 -86.7072 628.161 -85.824 629.547ZM-80.3328 641.189L-83.52 634.398C-84.2496 633.289 -84.9408 632.18 -85.6704 631.072C-84.5184 633.358 -83.3664 635.714 -82.2528 638.001C-81.6 639.11 -80.9856 640.149 -80.3328 641.189ZM-75.6096 651.236C-76.224 649.989 -76.8 648.672 -77.4144 647.425C-77.7984 646.801 -78.144 646.178 -78.528 645.554C-77.8752 646.871 -77.2224 648.187 -76.608 649.435L-75.6096 651.236ZM1459.74 130.841C1459.62 130.841 1459.51 130.91 1459.35 130.91C1459.74 130.91 1460.16 130.841 1460.54 130.841L1460.85 130.771C1460.47 130.841 1460.12 130.841 1459.74 130.841ZM1469.18 129.108C1467.96 129.316 1466.69 129.524 1465.46 129.801C1466.27 129.801 1467.07 129.871 1467.88 129.871C1469.26 129.732 1470.68 129.593 1472.06 129.524C1471.1 129.386 1470.14 129.178 1469.18 129.108ZM1477.44 127.723C1475.79 127.93 1474.18 128.208 1472.56 128.485C1473.98 128.623 1475.37 128.831 1476.79 129.039C1478.32 128.901 1479.86 128.762 1481.43 128.623C1480.09 128.346 1478.78 128 1477.44 127.723ZM1486.12 126.683C1484.24 126.891 1482.36 127.099 1480.47 127.376C1482.16 127.723 1483.81 128.069 1485.5 128.485C1487.35 128.415 1489.23 128.346 1491.07 128.277C1489.38 127.723 1487.77 127.237 1486.12 126.683ZM1494.72 125.921C1492.65 126.059 1490.53 126.198 1488.46 126.406C1490.15 126.96 1491.84 127.584 1493.53 128.208C1495.53 128.208 1497.52 128.208 1499.56 128.208C1497.98 127.515 1496.33 126.683 1494.72 125.921ZM1502.94 125.436C1500.86 125.574 1498.79 125.713 1496.72 125.852C1498.44 126.614 1500.21 127.515 1501.94 128.346C1504.01 128.415 1506.09 128.415 1508.2 128.485C1506.39 127.376 1504.67 126.406 1502.94 125.436ZM1511.46 125.228C1509.16 125.228 1506.89 125.228 1504.63 125.297C1506.43 126.337 1508.24 127.376 1510.08 128.485C1512.19 128.623 1514.34 128.762 1516.49 128.97C1514.8 127.723 1513.11 126.406 1511.46 125.228ZM1519.41 125.159C1517.22 125.159 1515.11 125.228 1512.92 125.228C1514.65 126.475 1516.38 127.792 1518.14 129.108C1520.33 129.316 1522.48 129.386 1524.67 129.663C1522.91 128.069 1521.14 126.683 1519.41 125.159ZM1527.74 125.574C1525.44 125.436 1523.1 125.297 1520.79 125.228C1522.6 126.752 1524.4 128.208 1526.17 129.801C1528.32 130.009 1530.51 130.356 1532.66 130.633C1531.05 128.97 1529.4 127.237 1527.74 125.574ZM-104.333 584.229C-106.176 580.072 -107.981 575.983 -109.824 571.895C-110.938 570.925 -112.09 569.885 -113.203 568.915C-111.36 572.934 -109.555 576.815 -107.712 580.834C-106.598 582.012 -105.485 583.121 -104.333 584.229ZM-98.0736 598.365C-99.84 594.346 -101.645 590.327 -103.411 586.308C-104.525 585.199 -105.638 584.091 -106.752 582.913C-104.986 586.724 -103.219 590.535 -101.453 594.346C-100.339 595.732 -99.1872 597.049 -98.0736 598.365ZM-92.0448 611.947C-93.696 608.274 -95.3472 604.463 -96.9984 600.721C-98.0736 599.474 -99.1104 598.296 -100.186 597.049C-98.5728 600.513 -96.9984 603.978 -95.3856 607.443C-94.3104 608.967 -93.1584 610.492 -92.0448 611.947ZM-86.0928 625.251C-87.6288 621.786 -89.1648 618.46 -90.7392 614.996C-91.8144 613.61 -92.8896 612.085 -93.9648 610.699C-92.4288 614.026 -90.9312 617.282 -89.3952 620.539C-88.2816 622.064 -87.2064 623.657 -86.0928 625.251ZM-80.1792 638.278L-84.4416 628.854C-85.4784 627.399 -86.4768 625.875 -87.5136 624.42C-86.0544 627.469 -84.6336 630.517 -83.1744 633.636C-82.176 635.229 -81.1776 636.754 -80.1792 638.278ZM-74.5344 650.89C-75.7632 648.187 -76.992 645.485 -78.2208 642.713C-79.104 641.327 -79.9872 639.941 -80.8704 638.555C-79.6032 641.258 -78.336 643.96 -77.0688 646.594C-76.224 648.049 -75.3792 649.435 -74.5344 650.89ZM-69.0432 663.085C-70.0416 660.868 -71.0784 658.581 -72.1152 656.295C-72.8064 655.186 -73.4976 654.008 -74.1888 652.83C-73.152 655.047 -72.1152 657.265 -71.0784 659.413C-70.3872 660.591 -69.696 661.838 -69.0432 663.085ZM-64.0128 673.965C-64.512 672.925 -64.9728 671.886 -65.472 670.846C-65.7792 670.292 -66.0864 669.738 -66.3936 669.183C-65.8176 670.361 -65.28 671.47 -64.704 672.648C-64.512 673.064 -64.2432 673.479 -64.0128 673.965ZM1442.15 134.167C1441.88 134.236 1441.65 134.305 1441.38 134.375C1441.73 134.305 1442.04 134.236 1442.38 134.167C1442.61 134.098 1442.8 134.028 1443.03 133.959C1442.76 134.028 1442.46 134.098 1442.15 134.167ZM1451.83 131.049C1450.6 131.464 1449.37 131.811 1448.18 132.227C1449.1 132.088 1450.02 132.019 1450.94 131.88C1452.25 131.534 1453.59 131.257 1454.9 130.979C1453.86 131.049 1452.83 130.979 1451.83 131.049ZM1460.77 128.554C1458.97 129.039 1457.13 129.455 1455.36 129.94C1456.82 129.871 1458.28 129.871 1459.74 129.801C1461.5 129.455 1463.27 129.108 1465.04 128.762C1463.62 128.693 1462.2 128.623 1460.77 128.554ZM1469.53 126.267C1467.61 126.752 1465.77 127.237 1463.85 127.723C1465.61 127.861 1467.38 127.93 1469.15 128.069C1470.95 127.723 1472.76 127.376 1474.56 127.099C1472.91 126.822 1471.22 126.545 1469.53 126.267ZM1478.75 124.396C1476.6 124.812 1474.48 125.228 1472.33 125.713C1474.02 126.059 1475.75 126.406 1477.48 126.752C1479.59 126.475 1481.7 126.198 1483.81 125.99C1482.12 125.436 1480.44 124.882 1478.75 124.396ZM1487.35 122.803C1485.12 123.149 1482.93 123.565 1480.74 123.981C1482.55 124.535 1484.35 125.089 1486.2 125.713C1488.38 125.505 1490.61 125.228 1492.8 125.089C1490.96 124.258 1489.15 123.565 1487.35 122.803ZM1496.14 121.486C1493.84 121.833 1491.49 122.11 1489.19 122.526C1491.07 123.288 1492.92 124.05 1494.8 124.951C1496.95 124.812 1499.14 124.674 1501.32 124.535C1499.6 123.496 1497.87 122.456 1496.14 121.486ZM1504.59 120.585C1502.25 120.793 1499.94 121.001 1497.64 121.278C1499.44 122.248 1501.25 123.357 1503.05 124.396C1505.36 124.327 1507.7 124.258 1510.04 124.258C1508.2 122.941 1506.39 121.763 1504.59 120.585ZM1513.08 119.823C1510.69 120.031 1508.35 120.239 1506.01 120.447C1507.89 121.694 1509.73 122.941 1511.62 124.258C1513.84 124.258 1516.03 124.189 1518.26 124.189C1516.49 122.733 1514.76 121.209 1513.08 119.823ZM1521.37 119.407C1518.99 119.477 1516.61 119.477 1514.23 119.684C1515.99 121.14 1517.76 122.664 1519.53 124.189C1521.91 124.189 1524.29 124.396 1526.67 124.535C1524.94 122.733 1523.14 121.14 1521.37 119.407ZM-99.6096 589.08C-101.491 584.714 -103.334 580.349 -105.216 575.983C-106.368 575.013 -107.52 573.905 -108.672 572.934C-106.79 577.161 -104.947 581.319 -103.066 585.546C-101.914 586.724 -100.762 587.902 -99.6096 589.08ZM-93.2736 603.839C-95.0784 599.612 -96.9216 595.316 -98.7264 591.02C-99.8784 589.842 -100.992 588.733 -102.144 587.555C-100.301 591.713 -98.496 595.801 -96.6528 599.959C-95.5392 601.276 -94.3872 602.523 -93.2736 603.839ZM-86.976 618.599C-88.7424 614.511 -90.5088 610.353 -92.3136 606.195C-93.4272 604.948 -94.5408 603.701 -95.6544 602.384C-93.888 606.334 -92.16 610.353 -90.3936 614.233C-89.2416 615.689 -88.0896 617.144 -86.976 618.599ZM-80.64 633.151C-82.368 629.201 -84.0576 625.251 -85.7856 621.301C-86.8608 619.916 -87.936 618.599 -89.0496 617.213C-87.3984 620.886 -85.7472 624.489 -84.096 628.161C-82.944 629.755 -81.792 631.488 -80.64 633.151ZM-74.6112 647.009C-76.1472 643.545 -77.6448 640.011 -79.1808 636.477C-80.256 634.952 -81.3696 633.289 -82.4448 631.765C-80.9088 635.16 -79.3728 638.555 -77.8752 641.951C-76.7616 643.614 -75.6864 645.346 -74.6112 647.009ZM-68.7744 660.452C-70.1184 657.334 -71.5008 654.216 -72.8448 651.098C-73.8432 649.573 -74.88 647.91 -75.8784 646.386C-74.496 649.435 -73.1136 652.484 -71.7696 655.532C-70.7712 657.126 -69.7728 658.789 -68.7744 660.452ZM-62.7072 674.242C-64.0128 671.262 -65.3184 668.282 -66.6624 665.303C-67.5456 663.848 -68.4288 662.323 -69.312 660.868C-67.8912 663.986 -66.5088 666.966 -65.088 670.084C-64.2816 671.47 -63.5136 672.856 -62.7072 674.242ZM-57.216 686.715C-58.176 684.566 -59.136 682.349 -60.096 680.201C-60.7104 679.092 -61.3632 678.053 -61.9776 676.944C-61.0176 679.023 -60.0576 681.171 -59.0592 683.25C-58.4448 684.359 -57.8304 685.537 -57.216 686.715ZM-52.032 698.425C-52.5696 697.247 -53.1072 696 -53.6448 694.822C-53.9136 694.268 -54.2208 693.783 -54.4896 693.228C-53.8752 694.545 -53.2608 695.861 -52.6848 697.178C-52.4544 697.594 -52.224 698.009 -52.032 698.425ZM1424.03 139.988C1423.83 140.057 1423.6 140.195 1423.41 140.265C1423.68 140.126 1423.91 140.057 1424.18 139.918L1424.03 139.988ZM1433.51 135.622C1432.28 136.176 1431.09 136.731 1429.9 137.285C1430.94 137.008 1431.94 136.731 1432.97 136.454C1434.24 135.968 1435.47 135.483 1436.74 134.998C1435.66 135.276 1434.55 135.414 1433.51 135.622ZM1443.19 131.742C1441.42 132.435 1439.65 133.127 1437.89 133.89C1439.31 133.613 1440.73 133.405 1442.15 133.127C1443.99 132.504 1445.84 131.949 1447.68 131.326C1446.14 131.464 1444.65 131.603 1443.19 131.742ZM1452.6 128.208C1450.48 128.901 1448.41 129.663 1446.34 130.494C1448.14 130.356 1449.95 130.148 1451.79 130.079C1453.75 129.455 1455.71 128.901 1457.66 128.346C1455.97 128.208 1454.28 128.208 1452.6 128.208ZM1461.85 125.02C1459.7 125.713 1457.59 126.475 1455.48 127.237C1457.24 127.307 1459.01 127.445 1460.77 127.584C1462.89 127.03 1465 126.475 1467.11 125.921C1465.38 125.574 1463.62 125.228 1461.85 125.02ZM1471.03 122.318C1468.68 122.941 1466.3 123.634 1463.96 124.327C1465.8 124.604 1467.69 124.882 1469.53 125.228C1471.91 124.674 1474.29 124.258 1476.67 123.773C1474.83 123.218 1472.95 122.803 1471.03 122.318ZM1480.13 119.823C1477.71 120.447 1475.33 121.07 1472.95 121.763C1474.91 122.248 1476.83 122.803 1478.78 123.357C1481.05 122.941 1483.28 122.456 1485.54 122.04C1483.74 121.348 1481.93 120.516 1480.13 119.823ZM1488.96 117.814C1486.58 118.299 1484.16 118.853 1481.78 119.477C1483.66 120.17 1485.5 121.001 1487.39 121.833C1489.77 121.417 1492.19 121.07 1494.6 120.793C1492.72 119.684 1490.84 118.784 1488.96 117.814ZM1497.87 116.081C1495.37 116.497 1492.88 116.982 1490.38 117.536C1492.3 118.506 1494.26 119.477 1496.18 120.516C1498.52 120.239 1500.86 119.962 1503.24 119.684C1501.48 118.506 1499.67 117.19 1497.87 116.081ZM1506.43 114.626C1504.01 115.042 1501.59 115.458 1499.21 115.873C1501.06 117.051 1502.86 118.368 1504.7 119.615C1507.12 119.407 1509.54 119.13 1511.96 118.922C1510.08 117.398 1508.28 116.012 1506.43 114.626ZM1515.11 113.448C1512.58 113.725 1510.08 114.002 1507.58 114.418C1509.47 115.873 1511.31 117.259 1513.19 118.784C1515.57 118.645 1517.95 118.576 1520.37 118.437C1518.6 116.774 1516.88 115.111 1515.11 113.448ZM-94.848 593.861C-96.8064 589.149 -98.7648 584.437 -100.723 579.725C-101.875 578.755 -102.989 577.854 -104.141 576.884C-102.221 581.319 -100.339 585.823 -98.4192 590.258C-97.2288 591.505 -96.0384 592.683 -94.848 593.861ZM-88.4352 609.383C-90.2784 604.948 -92.16 600.375 -94.0416 595.801C-95.1936 594.623 -96.384 593.445 -97.536 592.267C-95.6544 596.633 -93.8112 601.068 -91.9296 605.364C-90.7776 606.75 -89.5872 608.066 -88.4352 609.383ZM-81.9456 624.905C-83.7888 620.539 -85.632 616.104 -87.4752 611.67C-88.6272 610.353 -89.7792 609.036 -90.9312 607.72C-89.088 612.016 -87.2448 616.312 -85.44 620.539C-84.288 621.994 -83.136 623.45 -81.9456 624.905ZM-75.456 640.357C-77.2608 636.061 -79.0656 631.765 -80.8704 627.469C-82.0224 626.013 -83.136 624.628 -84.2496 623.172C-82.4448 627.399 -80.6016 631.557 -78.7968 635.714C-77.6832 637.308 -76.5696 638.763 -75.456 640.357ZM-69.0432 655.671C-70.7712 651.583 -72.4992 647.494 -74.1888 643.406C-75.264 641.882 -76.3392 640.426 -77.4528 638.902C-75.8016 642.713 -74.1504 646.524 -72.4992 650.335C-71.3472 652.068 -70.1952 653.939 -69.0432 655.671ZM-62.976 670.084C-64.512 666.481 -66.048 662.808 -67.584 659.136C-68.6208 657.542 -69.6576 656.018 -70.7328 654.424C-69.2736 657.819 -67.776 661.284 -66.3168 664.61C-65.2032 666.342 -64.0896 668.282 -62.976 670.084ZM-56.832 684.428C-58.2144 681.171 -59.5968 677.914 -60.9792 674.658C-61.9776 672.994 -63.0144 671.262 -64.0512 669.53C-62.592 672.787 -61.1712 676.113 -59.712 679.369C-58.752 681.102 -57.792 682.765 -56.832 684.428ZM-50.7264 698.841C-51.9936 695.861 -53.2992 692.812 -54.6048 689.764C-55.4496 688.308 -56.2944 686.853 -57.1392 685.398C-55.872 688.308 -54.5664 691.219 -53.2992 694.06C-52.416 695.654 -51.5712 697.247 -50.7264 698.841ZM-45.312 711.522C-46.1568 709.512 -47.04 707.503 -47.8848 705.424C-48.4992 704.315 -49.0752 703.206 -49.6896 702.098C-48.8064 704.107 -47.9232 706.186 -47.0016 708.126C-46.464 709.304 -45.888 710.413 -45.312 711.522ZM-40.4736 722.747C-40.896 721.777 -41.3184 720.807 -41.7408 719.837L-42.3168 718.728C-41.8176 719.837 -41.3184 720.946 -40.8192 722.124L-40.4736 722.747ZM1414.69 142.967C1413.31 143.729 1411.93 144.492 1410.55 145.323C1411.66 144.838 1412.77 144.422 1413.89 143.937C1415.12 143.314 1416.31 142.621 1417.54 142.066C1416.58 142.413 1415.62 142.69 1414.69 142.967ZM1424.52 137.632C1422.76 138.602 1421.03 139.502 1419.3 140.473C1420.84 139.988 1422.37 139.433 1423.95 139.017C1425.72 138.186 1427.48 137.424 1429.25 136.592C1427.67 136.869 1426.1 137.285 1424.52 137.632ZM1434.66 132.573C1432.47 133.613 1430.25 134.652 1428.06 135.761C1429.82 135.345 1431.63 134.929 1433.43 134.583C1435.58 133.613 1437.77 132.781 1439.96 131.949C1438.16 132.157 1436.43 132.365 1434.66 132.573ZM1444.38 128.069C1442.11 129.039 1439.85 130.079 1437.62 131.187C1439.46 130.979 1441.31 130.841 1443.11 130.702C1445.3 129.871 1447.49 128.97 1449.68 128.138C1447.91 128.138 1446.14 128.069 1444.38 128.069ZM1453.82 124.05C1451.44 125.02 1449.1 126.059 1446.72 127.03C1448.68 127.03 1450.6 127.03 1452.56 127.099C1454.94 126.267 1457.32 125.436 1459.7 124.674C1457.74 124.466 1455.78 124.258 1453.82 124.05ZM1463.5 120.377C1460.93 121.278 1458.36 122.248 1455.78 123.218C1457.82 123.426 1459.81 123.634 1461.85 123.911C1464.27 123.149 1466.73 122.456 1469.15 121.763C1467.26 121.348 1465.38 120.862 1463.5 120.377ZM1472.56 117.19C1470.11 118.021 1467.69 118.922 1465.27 119.823C1467.19 120.239 1469.15 120.793 1471.1 121.348C1473.52 120.655 1475.94 119.892 1478.4 119.269C1476.4 118.506 1474.48 117.814 1472.56 117.19ZM1481.93 114.28C1479.32 115.042 1476.71 115.804 1474.14 116.636C1476.13 117.328 1478.13 118.021 1480.17 118.784C1482.62 118.16 1485.12 117.606 1487.62 117.121C1485.7 116.15 1483.81 115.18 1481.93 114.28ZM1490.88 111.785C1488.35 112.478 1485.85 113.171 1483.32 113.864C1485.2 114.765 1487.12 115.804 1489 116.774C1491.49 116.22 1494.03 115.735 1496.56 115.25C1494.68 114.072 1492.76 112.894 1490.88 111.785ZM1499.9 109.498C1497.29 110.122 1494.68 110.746 1492.11 111.439C1494.07 112.617 1495.99 113.725 1497.95 115.042C1500.4 114.626 1502.86 114.21 1505.36 113.795C1503.55 112.339 1501.75 110.884 1499.9 109.498ZM1508.7 107.697C1506.12 108.182 1503.55 108.736 1501.02 109.29C1502.86 110.676 1504.7 112.131 1506.55 113.587C1509.08 113.171 1511.65 112.894 1514.19 112.547C1512.35 110.884 1510.5 109.29 1508.7 107.697ZM-90.1248 598.642C-92.16 593.584 -94.1952 588.525 -96.2304 583.398C-97.3824 582.428 -98.5344 581.527 -99.6864 580.557C-97.6896 585.407 -95.6928 590.258 -93.696 595.039C-92.5056 596.286 -91.3152 597.464 -90.1248 598.642ZM-83.5584 614.996C-85.4784 610.214 -87.4368 605.295 -89.3952 600.513C-90.5472 599.405 -91.7376 598.227 -92.8896 597.118C-90.9696 601.761 -89.0496 606.403 -87.168 610.977C-85.9392 612.224 -84.7488 613.61 -83.5584 614.996ZM-76.9152 631.28C-78.8352 626.568 -80.7168 621.925 -82.6368 617.213C-83.8272 615.896 -85.0176 614.511 -86.1696 613.194C-84.2496 617.767 -82.368 622.271 -80.4864 626.845C-79.3344 628.231 -78.144 629.755 -76.9152 631.28ZM-70.3488 647.425C-72.192 642.852 -74.0736 638.348 -75.9168 633.774C-77.0688 632.319 -78.2592 630.795 -79.4112 629.339C-77.568 633.774 -75.6864 638.209 -73.8432 642.644C-72.6912 644.238 -71.5008 645.831 -70.3488 647.425ZM-63.8208 663.363C-65.5872 659.066 -67.392 654.632 -69.1584 650.266C-70.3104 648.672 -71.424 647.148 -72.576 645.554C-70.7712 649.85 -69.0048 654.077 -67.2 658.304C-66.0864 660.036 -64.9728 661.7 -63.8208 663.363ZM-57.3312 679.231C-59.0592 675.073 -60.7488 670.846 -62.4768 666.689C-63.5904 665.026 -64.6656 663.432 -65.7408 661.838C-64.0128 665.927 -62.3232 669.946 -60.5952 673.965C-59.52 675.766 -58.4448 677.429 -57.3312 679.231ZM-50.9952 694.614C-52.5696 690.803 -54.144 686.992 -55.7184 683.111C-56.7552 681.448 -57.7536 679.854 -58.7904 678.191C-57.2544 681.795 -55.7184 685.398 -54.1824 689.001C-53.1456 690.872 -52.0704 692.743 -50.9952 694.614ZM-44.736 709.789C-46.1568 706.394 -47.5776 702.929 -48.9984 699.465C-49.9968 697.802 -50.9568 696 -51.9552 694.337C-50.4576 697.802 -48.9984 701.266 -47.5392 704.731C-46.5792 706.463 -45.6576 708.057 -44.736 709.789ZM-38.9376 723.787C-40.0896 721.015 -41.2416 718.174 -42.432 715.333C-43.2384 713.808 -44.0448 712.423 -44.8896 710.898C-43.7376 713.601 -42.5472 716.372 -41.3952 719.075C-40.5504 720.669 -39.744 722.262 -38.9376 723.787ZM-33.024 737.992C-33.9456 735.774 -34.8672 733.557 -35.8272 731.34C-36.4032 730.231 -36.9792 729.053 -37.5936 727.944C-36.6336 730.162 -35.6352 732.448 -34.6752 734.666C-34.0992 735.775 -33.5616 736.883 -33.024 737.992ZM-27.6864 750.673L-28.8384 747.901C-28.9536 747.693 -29.0688 747.416 -29.184 747.208C-28.7232 748.247 -28.2624 749.356 -27.8016 750.465L-27.6864 750.673ZM1394.84 153.5C1393.31 154.539 1391.73 155.579 1390.2 156.687C1391.35 156.064 1392.5 155.44 1393.61 154.747C1394.8 153.985 1395.99 153.084 1397.18 152.322C1396.42 152.807 1395.65 153.153 1394.84 153.5ZM1404.9 146.64C1403.14 147.818 1401.37 149.065 1399.6 150.243C1401.25 149.481 1402.91 148.649 1404.6 147.887C1406.28 146.848 1408.01 145.808 1409.7 144.769C1408.09 145.392 1406.48 146.016 1404.9 146.64ZM1415.62 139.918C1413.43 141.304 1411.28 142.621 1409.09 144.007C1410.93 143.314 1412.74 142.621 1414.58 141.997C1416.77 140.75 1418.96 139.572 1421.15 138.394C1419.3 138.879 1417.46 139.364 1415.62 139.918ZM1426.06 133.751C1423.56 135.137 1421.11 136.523 1418.65 137.978C1420.57 137.493 1422.49 137.077 1424.41 136.592C1426.79 135.345 1429.17 134.167 1431.59 132.989C1429.79 133.266 1427.9 133.474 1426.06 133.751ZM1435.81 128.415C1433.36 129.732 1430.94 131.118 1428.48 132.435C1430.52 132.157 1432.55 131.88 1434.59 131.603C1437 130.425 1439.39 129.247 1441.8 128.138C1439.81 128.138 1437.81 128.277 1435.81 128.415ZM1445.88 123.357C1443.26 124.604 1440.65 125.921 1438.04 127.307C1440.15 127.237 1442.23 127.099 1444.34 127.099C1446.84 125.99 1449.33 124.951 1451.87 123.911C1449.87 123.703 1447.87 123.496 1445.88 123.357ZM1455.63 118.853C1452.98 120.031 1450.37 121.209 1447.76 122.456C1449.75 122.595 1451.79 122.872 1453.82 123.08C1456.44 122.04 1459.05 121.07 1461.66 120.1C1459.62 119.615 1457.63 119.199 1455.63 118.853ZM1465.08 114.695C1462.43 115.804 1459.81 116.982 1457.2 118.16C1459.28 118.576 1461.35 118.922 1463.46 119.407C1466 118.506 1468.49 117.536 1471.03 116.636C1469.07 115.943 1467.07 115.319 1465.08 114.695ZM1474.68 111.023C1471.99 111.993 1469.3 113.032 1466.61 114.072C1468.61 114.695 1470.6 115.458 1472.56 116.15C1475.21 115.25 1477.9 114.487 1480.55 113.725C1478.59 112.755 1476.63 111.854 1474.68 111.023ZM1484.01 107.627C1481.32 108.528 1478.63 109.568 1475.94 110.538C1477.94 111.439 1479.97 112.27 1481.97 113.24C1484.54 112.478 1487.12 111.716 1489.69 111.023C1487.81 109.914 1485.89 108.736 1484.01 107.627ZM1493.15 104.717C1490.5 105.549 1487.85 106.38 1485.24 107.281C1487.16 108.39 1489.04 109.637 1490.96 110.746C1493.61 110.053 1496.26 109.429 1498.91 108.805C1496.99 107.35 1495.07 106.034 1493.15 104.717ZM1502.28 102.015C1499.6 102.777 1496.91 103.539 1494.22 104.301C1496.14 105.687 1498.1 107.004 1500.02 108.459C1502.59 107.835 1505.16 107.35 1507.74 106.796C1505.93 105.202 1504.09 103.608 1502.28 102.015ZM-85.5168 603.008C-87.5904 597.742 -89.664 592.406 -91.7376 587.07C-92.8896 586.1 -94.08 585.13 -95.232 584.16C-93.1584 589.288 -91.0848 594.485 -89.0112 599.612C-87.8592 600.79 -86.6688 601.899 -85.5168 603.008ZM-78.6432 620.539C-80.6784 615.411 -82.752 610.076 -84.7872 604.81C-85.9392 603.701 -87.1296 602.592 -88.2816 601.483C-86.2848 606.473 -84.288 611.462 -82.2912 616.382C-81.1008 617.767 -79.872 619.223 -78.6432 620.539ZM-71.8848 637.655C-73.8816 632.596 -75.84 627.676 -77.8368 622.618C-79.0272 621.301 -80.2176 619.985 -81.408 618.599C-79.4496 623.449 -77.4912 628.161 -75.5328 633.012C-74.3424 634.536 -73.1136 636.13 -71.8848 637.655ZM-65.2032 654.493C-67.1232 649.712 -69.0048 644.861 -70.9248 640.011C-72.1152 638.555 -73.344 636.962 -74.5344 635.437C-72.6144 640.149 -70.7328 644.792 -68.8128 649.435C-67.6224 651.167 -66.3936 652.899 -65.2032 654.493ZM-58.5984 671.193C-60.4416 666.619 -62.2848 661.907 -64.128 657.265C-65.3184 655.671 -66.5088 654.008 -67.6608 652.345C-65.8176 656.849 -63.9744 661.422 -62.1312 665.857C-60.9408 667.728 -59.7888 669.461 -58.5984 671.193ZM-51.9168 687.893C-53.7216 683.388 -55.5264 678.884 -57.3312 674.38C-58.4832 672.648 -59.6352 670.985 -60.7872 669.253C-58.9824 673.687 -57.1776 678.053 -55.3728 682.418C-54.2208 684.289 -53.0688 686.022 -51.9168 687.893ZM-45.1584 704.8C-46.9248 700.435 -48.6912 696 -50.4576 691.634C-51.5712 689.833 -52.6464 688.1 -53.76 686.368C-52.032 690.526 -50.3424 694.683 -48.6144 698.841C-47.4624 700.712 -46.3104 702.791 -45.1584 704.8ZM-38.8992 720.391C-40.3968 716.649 -41.9328 712.908 -43.4304 709.096C-44.5056 707.295 -45.5424 705.424 -46.6176 703.622C-45.0816 707.295 -43.584 711.037 -42.048 714.64C-40.9728 716.58 -39.936 718.52 -38.8992 720.391ZM-32.4864 736.26C-33.9072 732.726 -35.3664 729.122 -36.8256 725.588C-37.7856 723.856 -38.784 722.054 -39.744 720.322C-38.2848 723.787 -36.864 727.251 -35.4048 730.716C-34.4448 732.518 -33.4464 734.389 -32.4864 736.26ZM-26.2656 751.573C-27.456 748.663 -28.608 745.822 -29.7984 742.912C-30.6048 741.387 -31.4496 739.724 -32.256 738.2C-30.9888 741.179 -29.7216 744.228 -28.4544 747.277C-27.7248 748.732 -26.9952 750.118 -26.2656 751.573ZM-20.6208 765.502C-21.4656 763.423 -22.3104 761.344 -23.1552 759.265C-23.6928 758.226 -24.2304 757.117 -24.768 756.078C-23.8848 758.156 -23.0016 760.305 -22.1184 762.383C-21.6192 763.423 -21.12 764.462 -20.6208 765.502ZM-15.744 777.559C-16.0128 776.866 -16.2816 776.173 -16.5888 775.48L-17.088 774.44C-16.704 775.341 -16.3584 776.173 -15.9744 777.074L-15.744 777.559ZM1373.8 167.705C1372.3 168.952 1370.76 170.2 1369.31 171.516C1370.27 170.823 1371.26 170.13 1372.22 169.437C1373.49 168.398 1374.76 167.359 1376.03 166.319C1375.3 166.804 1374.53 167.22 1373.8 167.705ZM1384.55 158.835C1382.59 160.36 1380.63 161.954 1378.68 163.547C1380.4 162.439 1382.13 161.33 1383.9 160.291C1385.59 159.043 1387.28 157.727 1388.97 156.479C1387.51 157.311 1386.01 158.073 1384.55 158.835ZM1395.42 150.451C1393.23 152.114 1391.08 153.777 1388.93 155.44C1390.85 154.47 1392.77 153.43 1394.73 152.46C1396.92 150.936 1399.1 149.411 1401.33 147.887C1399.33 148.788 1397.38 149.619 1395.42 150.451ZM1406.67 142.482C1404.13 144.214 1401.6 146.016 1399.07 147.818C1400.95 147.055 1402.87 146.363 1404.75 145.6C1407.28 143.937 1409.86 142.344 1412.43 140.819C1410.55 141.373 1408.59 141.858 1406.67 142.482ZM1417.08 135.483C1414.43 137.216 1411.78 138.948 1409.13 140.68C1411.24 140.057 1413.35 139.433 1415.46 138.879C1418.07 137.285 1420.65 135.761 1423.3 134.236C1421.22 134.652 1419.15 135.068 1417.08 135.483ZM1427.33 128.97C1424.68 130.633 1422.03 132.365 1419.38 134.028C1421.57 133.613 1423.76 133.127 1425.98 132.781C1428.52 131.326 1431.01 129.871 1433.59 128.485C1431.51 128.623 1429.4 128.762 1427.33 128.97ZM1437.73 122.941C1434.97 124.466 1432.24 126.059 1429.52 127.723C1431.59 127.584 1433.7 127.515 1435.78 127.376C1438.5 125.921 1441.23 124.604 1443.99 123.288C1441.88 123.149 1439.81 123.011 1437.73 122.941ZM1447.76 117.467C1444.95 118.922 1442.15 120.447 1439.35 121.971C1441.5 122.04 1443.65 122.11 1445.84 122.318C1448.52 121.001 1451.25 119.754 1453.98 118.506C1451.9 118.16 1449.83 117.814 1447.76 117.467ZM1457.55 112.478C1454.78 113.864 1452.06 115.319 1449.33 116.705C1451.4 117.051 1453.52 117.398 1455.63 117.814C1458.32 116.636 1461 115.388 1463.69 114.28C1461.62 113.656 1459.58 113.032 1457.55 112.478ZM1467.42 107.905C1464.58 109.152 1461.7 110.399 1458.89 111.785C1460.97 112.339 1463.04 112.963 1465.11 113.587C1467.88 112.478 1470.64 111.439 1473.45 110.399C1471.41 109.568 1469.41 108.736 1467.42 107.905ZM1476.9 103.747C1474.14 104.925 1471.41 106.172 1468.65 107.35C1470.64 108.182 1472.68 109.083 1474.68 109.983C1477.36 108.944 1480.09 107.974 1482.82 107.004C1480.86 105.895 1478.86 104.786 1476.9 103.747ZM1486.5 100.005C1483.66 101.114 1480.86 102.153 1478.05 103.331C1480.05 104.44 1482.05 105.479 1484.08 106.657C1486.77 105.756 1489.46 104.925 1492.19 104.024C1490.27 102.638 1488.38 101.252 1486.5 100.005ZM1495.72 96.6097C1492.95 97.5798 1490.23 98.5499 1487.5 99.5893C1489.42 100.906 1491.3 102.292 1493.22 103.678C1495.95 102.846 1498.64 102.015 1501.4 101.252C1499.52 99.6586 1497.6 98.1341 1495.72 96.6097ZM-80.8704 607.443C-82.9824 601.968 -85.0944 596.356 -87.2064 590.812C-88.3968 589.842 -89.5488 588.872 -90.7392 587.902C-88.6272 593.307 -86.5152 598.712 -84.4416 604.047C-83.2512 605.225 -82.0608 606.334 -80.8704 607.443ZM-73.92 625.667C-75.9936 620.262 -78.1056 614.718 -80.2176 609.244C-81.408 608.136 -82.5984 607.027 -83.7504 605.849C-81.6768 611.185 -79.5648 616.52 -77.4912 621.786C-76.3008 623.103 -75.1104 624.35 -73.92 625.667ZM-66.8544 643.96C-68.9664 638.486 -71.04 633.151 -73.152 627.676C-74.3424 626.36 -75.5328 625.182 -76.6848 623.865C-74.6496 629.062 -72.6144 634.19 -70.5792 639.318C-69.312 640.842 -68.0832 642.436 -66.8544 643.96ZM-60.0192 661.63C-62.016 656.503 -64.0128 651.306 -65.9712 646.178C-67.1616 644.723 -68.3904 643.198 -69.5808 641.743C-67.6224 646.663 -65.664 651.652 -63.7056 656.572C-62.5152 658.235 -61.248 659.967 -60.0192 661.63ZM-53.2992 679.092C-55.1808 674.242 -57.1008 669.253 -58.9824 664.333C-60.2112 662.67 -61.44 660.937 -62.6304 659.274C-60.7488 664.056 -58.8288 668.906 -56.9472 673.618C-55.7568 675.42 -54.528 677.291 -53.2992 679.092ZM-46.464 696.624C-48.3456 691.773 -50.1888 687.061 -52.0704 682.211C-53.2608 680.478 -54.4896 678.607 -55.68 676.806C-53.7984 681.518 -51.9552 686.16 -50.0352 690.872C-48.8832 692.743 -47.6544 694.683 -46.464 696.624ZM-39.5904 714.224C-41.4336 709.512 -43.2384 704.87 -45.0816 700.158C-46.2336 698.287 -47.424 696.416 -48.576 694.545C-46.7328 699.188 -44.8512 703.83 -43.008 708.404C-41.8944 710.344 -40.7424 712.215 -39.5904 714.224ZM-32.9856 731.132C-34.6752 726.836 -36.3648 722.47 -38.0544 718.174C-39.168 716.303 -40.2432 714.501 -41.3568 712.63C-39.7056 716.719 -38.0544 720.876 -36.4416 724.895C-35.2896 726.974 -34.1376 729.053 -32.9856 731.132ZM-26.3808 747.97C-27.9552 743.951 -29.5296 740.001 -31.1424 735.913C-32.2176 733.973 -33.2928 731.963 -34.4064 730.023C-32.7552 734.111 -31.104 738.13 -29.4528 742.219C-28.3776 744.159 -27.3792 746.03 -26.3808 747.97ZM-20.0064 764.116L-24.192 753.514C-25.1136 751.781 -26.0352 750.049 -26.9568 748.317L-22.7712 758.572C-21.8496 760.443 -20.928 762.245 -20.0064 764.116ZM-13.824 779.707C-14.976 776.796 -16.128 773.886 -17.28 770.976C-18.048 769.382 -18.8544 767.857 -19.6608 766.264C-18.5088 769.105 -17.3184 772.015 -16.1664 774.856C-15.3984 776.45 -14.592 778.113 -13.824 779.707ZM-8.064 794.258C-8.832 792.318 -9.63838 790.309 -10.4064 788.299C-10.944 787.19 -11.4816 786.012 -12.0192 784.904C-11.136 787.121 -10.2528 789.2 -9.36961 791.348C-8.9472 792.318 -8.5248 793.358 -8.064 794.258ZM1351.3 186.206C1349.84 187.662 1348.34 189.117 1346.88 190.572C1347.76 189.81 1348.61 189.047 1349.49 188.285C1350.87 186.969 1352.22 185.583 1353.6 184.335C1352.83 185.028 1352.06 185.583 1351.3 186.206ZM1362.89 175.05C1360.74 177.06 1358.63 179 1356.48 181.079C1358.25 179.693 1360.01 178.307 1361.82 176.99C1363.58 175.397 1365.31 173.803 1367.08 172.209C1365.7 173.11 1364.28 174.08 1362.89 175.05ZM1374.26 164.656C1371.96 166.666 1369.69 168.814 1367.39 170.893C1369.46 169.507 1371.49 168.051 1373.61 166.735C1375.83 164.864 1378.02 162.993 1380.29 161.122C1378.25 162.231 1376.26 163.478 1374.26 164.656ZM1385.93 154.678C1383.36 156.826 1380.83 158.974 1378.29 161.191C1380.33 160.083 1382.36 158.974 1384.4 157.865C1386.97 155.856 1389.54 153.846 1392.12 151.906C1390.04 152.807 1388.01 153.708 1385.93 154.678ZM1397.22 145.67C1394.42 147.818 1391.62 149.966 1388.81 152.253C1390.92 151.282 1393.08 150.382 1395.23 149.481C1398.03 147.402 1400.83 145.462 1403.67 143.452C1401.52 144.214 1399.37 144.907 1397.22 145.67ZM1408.13 137.424C1405.25 139.502 1402.41 141.651 1399.56 143.799C1401.87 142.967 1404.21 142.136 1406.55 141.443C1409.24 139.572 1411.97 137.701 1414.66 135.968C1412.51 136.384 1410.32 136.939 1408.13 137.424ZM1418.8 129.801C1415.96 131.742 1413.16 133.82 1410.36 135.83C1412.54 135.345 1414.77 134.86 1417 134.444C1419.76 132.642 1422.49 130.841 1425.29 129.108C1423.1 129.386 1420.95 129.524 1418.8 129.801ZM1429.44 122.872C1426.48 124.743 1423.56 126.614 1420.65 128.623C1422.84 128.346 1425.06 128.138 1427.25 127.93C1430.13 126.198 1433.09 124.535 1436.01 122.872C1433.82 122.803 1431.63 122.872 1429.44 122.872ZM1439.88 116.358C1436.93 118.16 1433.97 119.962 1431.05 121.833C1433.28 121.833 1435.47 121.833 1437.7 121.902C1440.5 120.308 1443.34 118.784 1446.18 117.259C1444.07 116.982 1441.96 116.636 1439.88 116.358ZM1449.91 110.468C1447.03 112.131 1444.15 113.795 1441.31 115.527C1443.46 115.804 1445.61 116.081 1447.76 116.428C1450.6 114.973 1453.44 113.448 1456.28 112.062C1454.13 111.508 1452.02 111.023 1449.91 110.468ZM1460.04 105.064C1457.05 106.588 1454.09 108.112 1451.14 109.775C1453.25 110.33 1455.4 110.815 1457.51 111.439C1460.35 110.053 1463.27 108.736 1466.15 107.489C1464.15 106.588 1462.08 105.826 1460.04 105.064ZM1469.84 100.005C1466.96 101.46 1464.08 102.915 1461.2 104.44C1463.27 105.202 1465.34 106.034 1467.42 106.865C1470.22 105.618 1472.99 104.301 1475.79 103.123C1473.83 102.084 1471.83 101.044 1469.84 100.005ZM1479.59 95.501C1476.71 96.8176 1473.83 98.1341 1470.99 99.52C1472.99 100.559 1474.98 101.668 1476.98 102.708C1479.82 101.53 1482.7 100.421 1485.54 99.3121C1483.55 97.9956 1481.55 96.8176 1479.59 95.501ZM1489.19 91.3434C1486.31 92.5213 1483.43 93.8379 1480.59 95.0852C1482.59 96.4018 1484.58 97.5798 1486.58 98.9657C1489.34 97.9263 1492.07 96.8869 1494.84 95.9167C1492.95 94.323 1491.07 92.7985 1489.19 91.3434ZM-76.224 611.877C-78.4128 606.057 -80.6016 600.167 -82.7904 594.346C-83.9424 593.445 -85.1328 592.544 -86.2848 591.644C-84.1344 597.256 -81.984 602.869 -79.872 608.482C-78.6432 609.591 -77.4144 610.769 -76.224 611.877ZM-69.12 630.864C-71.2704 625.182 -73.3824 619.43 -75.5328 613.679C-76.7232 612.57 -77.952 611.392 -79.1424 610.214C-76.992 615.827 -74.88 621.371 -72.768 626.914C-71.5776 628.231 -70.3488 629.547 -69.12 630.864ZM-61.9776 649.781C-64.128 644.099 -66.24 638.486 -68.3904 632.804C-69.5808 631.488 -70.8096 630.24 -72 628.924C-69.8496 634.467 -67.7376 639.941 -65.6256 645.485C-64.3968 646.94 -63.2064 648.326 -61.9776 649.781ZM-54.8736 668.629C-56.9472 663.085 -59.0592 657.542 -61.1712 651.929C-62.3616 650.474 -63.552 649.088 -64.7808 647.633C-62.7456 652.969 -60.672 658.304 -58.6368 663.57C-57.3696 665.303 -56.1408 666.966 -54.8736 668.629ZM-47.9232 687.061C-49.92 681.795 -51.9552 676.39 -53.952 671.054C-55.1424 669.46 -56.3712 667.867 -57.5616 666.204C-55.6032 671.262 -53.6448 676.39 -51.6864 681.379C-50.4576 683.319 -49.1904 685.259 -47.9232 687.061ZM-40.9728 705.355C-42.9312 700.227 -44.8512 695.168 -46.7712 690.11C-48 688.308 -49.2672 686.368 -50.496 684.566C-48.576 689.556 -46.656 694.476 -44.6976 699.395C-43.4688 701.336 -42.24 703.414 -40.9728 705.355ZM-34.0608 723.51C-35.9424 718.59 -37.824 713.67 -39.7056 708.75C-40.9344 706.81 -42.1632 704.87 -43.3536 702.929C-41.472 707.78 -39.552 712.63 -37.6704 717.481C-36.48 719.49 -35.2512 721.5 -34.0608 723.51ZM-27.1488 741.664C-28.9536 736.953 -30.7968 732.102 -32.64 727.251C-33.792 725.311 -34.9824 723.302 -36.1344 721.361C-34.3296 726.004 -32.5248 730.647 -30.72 735.22C-29.5296 737.368 -28.3392 739.586 -27.1488 741.664ZM-20.4288 759.126C-22.1184 754.692 -23.808 750.326 -25.4976 745.891C-26.6112 743.951 -27.6864 742.08 -28.7616 740.071C-27.072 744.298 -25.4208 748.525 -23.7312 752.751C-22.656 754.969 -21.5424 757.048 -20.4288 759.126ZM-13.7088 776.658L-18.4704 764.323C-19.5072 762.383 -20.544 760.374 -21.6192 758.434C-20.0448 762.383 -18.4704 766.402 -16.9344 770.352C-15.8208 772.431 -14.7456 774.579 -13.7088 776.658ZM-7.104 793.773C-8.4864 790.17 -9.8688 786.567 -11.2896 782.894C-12.2496 781.023 -13.2096 779.014 -14.1696 777.143C-12.7872 780.677 -11.4048 784.211 -10.0224 787.676C-9.06239 789.685 -8.064 791.764 -7.104 793.773ZM-0.9216 809.78C-2.07361 806.8 -3.2256 803.821 -4.416 800.841C-5.1456 799.317 -5.83679 797.931 -6.56639 796.406C-5.37599 799.455 -4.1472 802.435 -2.9568 805.415C-2.26561 806.939 -1.61281 808.325 -0.9216 809.78ZM5.0304 825.025C4.224 822.946 3.41762 820.936 2.64961 818.858C2.18881 817.888 1.76642 816.917 1.30562 815.947C2.15041 818.095 2.99519 820.244 3.87839 822.322C4.224 823.292 4.60799 824.124 5.0304 825.025ZM9.6384 836.943L9.60001 836.805L9.6384 836.943ZM1326.8 210.459C1325.53 211.984 1324.22 213.439 1322.96 214.894C1323.8 213.993 1324.65 213.162 1325.49 212.261C1326.76 210.875 1327.99 209.35 1329.25 207.965C1328.41 208.796 1327.6 209.628 1326.8 210.459ZM1339.85 195.769C1337.55 198.263 1335.28 200.689 1333.02 203.253C1334.75 201.59 1336.51 199.996 1338.24 198.402C1340.12 196.393 1341.96 194.383 1343.88 192.443C1342.54 193.552 1341.2 194.591 1339.85 195.769ZM1351.91 183.019C1349.41 185.583 1346.96 188.147 1344.5 190.78C1346.69 188.978 1348.84 187.107 1351.07 185.306C1353.25 183.157 1355.44 180.871 1357.67 178.723C1355.75 180.109 1353.83 181.564 1351.91 183.019ZM1363.89 170.962C1361.28 173.526 1358.71 176.159 1356.1 178.792C1358.28 177.198 1360.47 175.604 1362.7 174.08C1365.31 171.655 1367.92 169.229 1370.57 166.804C1368.35 168.121 1366.12 169.507 1363.89 170.962ZM1376.14 159.528C1373.3 162.161 1370.46 164.795 1367.62 167.428C1369.73 166.111 1371.92 164.933 1374.07 163.686C1376.95 161.122 1379.87 158.697 1382.82 156.202C1380.6 157.311 1378.37 158.35 1376.14 159.528ZM1387.74 149.273C1384.67 151.906 1381.59 154.47 1378.56 157.242C1380.94 156.064 1383.36 154.816 1385.74 153.708C1388.7 151.282 1391.69 148.926 1394.69 146.57C1392.38 147.402 1390.08 148.372 1387.74 149.273ZM1399.18 139.71C1396.11 142.205 1393.08 144.699 1390.04 147.333C1392.38 146.432 1394.73 145.531 1397.11 144.699C1399.99 142.482 1402.91 140.195 1405.82 138.047C1403.6 138.602 1401.37 139.087 1399.18 139.71ZM1410.05 131.118C1407.05 133.405 1404.13 135.83 1401.18 138.186C1403.44 137.562 1405.75 137.008 1408.05 136.454C1411.01 134.305 1414 132.157 1417 130.009C1414.66 130.356 1412.35 130.771 1410.05 131.118ZM1421.18 123.011C1418.04 125.228 1414.85 127.515 1411.74 129.871C1414.04 129.524 1416.38 129.108 1418.69 128.831C1421.68 126.752 1424.72 124.882 1427.75 122.941C1425.56 122.872 1423.37 122.872 1421.18 123.011ZM1431.74 115.596C1428.71 117.606 1425.72 119.754 1422.72 121.833C1424.95 121.763 1427.17 121.763 1429.4 121.763C1432.4 119.823 1435.39 117.952 1438.43 116.081C1436.16 115.943 1433.97 115.804 1431.74 115.596ZM1442.3 108.667C1439.23 110.607 1436.2 112.686 1433.16 114.695C1435.39 114.903 1437.62 115.042 1439.88 115.319C1442.8 113.587 1445.72 111.854 1448.68 110.191C1446.49 109.706 1444.38 109.083 1442.3 108.667ZM1452.6 102.43C1449.52 104.232 1446.45 106.034 1443.46 107.905C1445.61 108.39 1447.76 108.875 1449.87 109.429C1452.86 107.766 1455.9 106.172 1458.89 104.578C1456.82 103.816 1454.71 103.123 1452.6 102.43ZM1462.66 96.5404C1459.66 98.2034 1456.7 100.005 1453.75 101.737C1455.86 102.43 1457.97 103.193 1460.08 103.955C1462.96 102.43 1465.84 100.906 1468.76 99.4507C1466.73 98.4806 1464.69 97.5105 1462.66 96.5404ZM1472.79 91.2048C1469.76 92.7985 1466.73 94.323 1463.69 95.986C1465.77 96.9562 1467.8 97.9263 1469.88 98.9657C1472.79 97.5798 1475.71 96.2632 1478.67 94.8773C1476.71 93.6993 1474.75 92.3828 1472.79 91.2048ZM1482.51 86.2849C1479.55 87.7401 1476.63 89.1953 1473.72 90.7197C1475.67 91.8977 1477.63 93.2143 1479.63 94.5309C1482.51 93.2143 1485.43 91.967 1488.31 90.7197C1486.39 89.126 1484.47 87.6708 1482.51 86.2849ZM-71.5392 616.382C-73.8048 610.214 -76.0704 603.978 -78.336 597.742C-79.488 596.841 -80.6784 595.94 -81.8304 595.039C-79.6032 600.998 -77.376 606.958 -75.1872 612.848C-73.9968 614.026 -72.768 615.273 -71.5392 616.382ZM-64.3584 635.992C-66.5472 630.032 -68.736 624.073 -70.9632 618.045C-72.1536 616.936 -73.3824 615.758 -74.5728 614.649C-72.384 620.47 -70.2336 626.291 -68.0448 632.042C-66.816 633.358 -65.5872 634.675 -64.3584 635.992ZM-57.1008 655.671C-59.2896 649.781 -61.44 643.891 -63.6288 637.932C-64.8576 636.615 -66.0864 635.299 -67.2768 633.982C-65.088 639.734 -62.9376 645.485 -60.7872 651.236C-59.5584 652.691 -58.3296 654.147 -57.1008 655.671ZM-49.92 675.212C-52.032 669.46 -54.1824 663.64 -56.3328 657.819C-57.5616 656.364 -58.7904 654.909 -59.9808 653.454C-57.8304 659.136 -55.7184 664.818 -53.6064 670.431C-52.3776 672.024 -51.1488 673.549 -49.92 675.212ZM-42.7008 694.683C-44.8128 689.001 -46.8864 683.319 -48.9984 677.568C-50.2272 675.974 -51.4176 674.38 -52.6464 672.787C-50.5728 678.33 -48.4608 683.874 -46.3872 689.348C-45.1968 691.149 -43.9296 692.882 -42.7008 694.683ZM-35.4816 714.155C-37.5552 708.542 -39.6288 702.999 -41.7024 697.386C-42.9312 695.654 -44.1216 693.99 -45.312 692.258C-43.3152 697.524 -41.3184 702.721 -39.3216 707.988C-38.0544 709.997 -36.7488 712.145 -35.4816 714.155ZM-28.4928 732.934C-30.4512 727.737 -32.3712 722.47 -34.3296 717.204C-35.5584 715.264 -36.7872 713.323 -38.0544 711.383C-36.1344 716.442 -34.176 721.569 -32.256 726.558C-30.9888 728.707 -29.7216 730.855 -28.4928 732.934ZM-21.5424 751.573C-23.3856 746.654 -25.2672 741.526 -27.1488 736.467C-28.3776 734.458 -29.6064 732.31 -30.8352 730.3C-28.9536 735.289 -27.0336 740.279 -25.152 745.198C-23.9232 747.416 -22.7328 749.495 -21.5424 751.573ZM-14.4768 770.421C-16.32 765.502 -18.1632 760.651 -20.0064 755.731C-21.1584 753.652 -22.3104 751.643 -23.5008 749.564C-21.696 754.276 -19.8912 758.919 -18.0864 763.631C-16.8576 765.848 -15.6672 768.135 -14.4768 770.421ZM-7.48799 788.923C-9.216 784.349 -10.9056 779.776 -12.6336 775.203C-13.7856 773.055 -14.8992 770.906 -16.0512 768.758C-14.3232 773.262 -12.5952 777.766 -10.8672 782.201C-9.75359 784.488 -8.64 786.705 -7.48799 788.923ZM-0.9216 806.523C-2.4192 802.504 -3.9552 798.416 -5.4912 794.328C-6.528 792.318 -7.5264 790.378 -8.56319 788.368C-7.0656 792.318 -5.5296 796.268 -4.032 800.148C-2.9568 802.297 -1.9584 804.375 -0.9216 806.523ZM5.72162 823.985C4.30081 820.243 2.9184 816.64 1.536 812.968C0.614395 811.097 -0.268784 809.295 -1.19038 807.424C0.230408 811.027 1.61281 814.631 3.03362 818.303C3.91681 820.174 4.83841 822.114 5.72162 823.985ZM12.1344 840.962L8.79361 832.093C8.06401 830.499 7.33441 828.905 6.60481 827.381C7.75681 830.291 8.9088 833.271 10.0224 836.181C10.7136 837.775 11.4432 839.369 12.1344 840.962ZM18.0864 856.553C17.3952 854.752 16.704 852.881 15.9744 851.01C15.5136 849.97 15.0528 848.931 14.592 847.892C15.3216 849.763 16.0512 851.634 16.7808 853.505C17.2032 854.544 17.6256 855.583 18.0864 856.553ZM1300.57 241.018C1299.03 243.096 1297.46 245.106 1295.92 247.185C1297.38 245.383 1298.8 243.582 1300.26 241.78C1301.22 240.533 1302.18 239.216 1303.18 237.969C1302.3 239.008 1301.41 239.978 1300.57 241.018ZM1314.55 222.863C1312.44 225.496 1310.32 228.129 1308.25 230.832C1309.86 229.03 1311.51 227.228 1313.16 225.427C1315.2 222.932 1317.24 220.368 1319.27 217.874C1317.7 219.537 1316.12 221.2 1314.55 222.863ZM1328.06 206.371C1325.41 209.489 1322.8 212.677 1320.19 215.864C1322.3 213.716 1324.42 211.637 1326.53 209.558C1328.91 206.787 1331.25 204.015 1333.67 201.312C1331.79 202.975 1329.91 204.639 1328.06 206.371ZM1340.74 191.681C1337.93 194.799 1335.17 198.056 1332.4 201.312C1334.82 199.164 1337.2 196.947 1339.62 194.868C1342.31 191.958 1345.04 188.978 1347.76 186.068C1345.38 187.869 1343.08 189.81 1340.74 191.681ZM1353.64 177.683C1350.64 180.871 1347.65 184.128 1344.69 187.384C1347 185.583 1349.34 183.781 1351.68 182.049C1354.64 179 1357.63 176.02 1360.67 173.041C1358.32 174.565 1355.94 176.09 1353.64 177.683ZM1366.08 165.003C1362.89 168.19 1359.74 171.308 1356.6 174.565C1358.94 172.971 1361.32 171.516 1363.66 169.992C1366.85 166.873 1370.07 163.963 1373.34 160.983C1370.92 162.231 1368.5 163.617 1366.08 165.003ZM1378.18 153.292C1374.91 156.341 1371.61 159.459 1368.38 162.647C1370.92 161.261 1373.41 159.875 1375.95 158.558C1379.02 155.717 1382.13 153.015 1385.28 150.312C1382.94 151.282 1380.56 152.253 1378.18 153.292ZM1389.89 142.621C1386.7 145.462 1383.55 148.372 1380.4 151.282C1382.78 150.243 1385.2 149.342 1387.58 148.372C1390.66 145.739 1393.77 143.036 1396.88 140.473C1394.53 141.096 1392.19 141.858 1389.89 142.621ZM1401.25 132.712C1398.07 135.414 1394.88 138.186 1391.73 140.958C1394.15 140.195 1396.57 139.433 1399.03 138.74C1402.1 136.246 1405.17 133.82 1408.28 131.395C1405.94 131.811 1403.6 132.227 1401.25 132.712ZM1412.66 123.565C1409.36 126.129 1406.09 128.693 1402.83 131.395C1405.17 130.91 1407.55 130.564 1409.89 130.148C1413.04 127.723 1416.27 125.436 1419.49 123.149C1417.23 123.218 1414.96 123.357 1412.66 123.565ZM1423.64 115.042C1420.42 117.467 1417.23 119.892 1414.08 122.387C1416.42 122.248 1418.73 122.04 1421.07 121.971C1424.14 119.754 1427.17 117.606 1430.28 115.527C1428.1 115.319 1425.87 115.18 1423.64 115.042ZM1434.39 107.281C1431.24 109.498 1428.13 111.785 1425.02 114.072C1427.25 114.21 1429.48 114.418 1431.71 114.557C1434.82 112.478 1437.89 110.399 1441.04 108.39C1438.81 107.974 1436.58 107.627 1434.39 107.281ZM1445.15 100.005C1441.92 102.153 1438.69 104.232 1435.51 106.449C1437.73 106.865 1440 107.212 1442.23 107.627C1445.26 105.687 1448.33 103.886 1451.44 102.084C1449.37 101.391 1447.26 100.629 1445.15 100.005ZM1455.4 93.2836C1452.29 95.2238 1449.25 97.3026 1446.18 99.3121C1448.29 99.9358 1450.44 100.698 1452.56 101.391C1455.55 99.5893 1458.55 97.7877 1461.58 96.0553C1459.55 95.0852 1457.47 94.1844 1455.4 93.2836ZM1465.77 87.1164C1462.66 88.9181 1459.55 90.7197 1456.47 92.6599C1458.55 93.5608 1460.62 94.5309 1462.69 95.501C1465.73 93.8379 1468.8 92.2442 1471.87 90.6504C1469.8 89.4031 1467.76 88.2944 1465.77 87.1164ZM1475.83 81.3651C1472.76 83.0974 1469.72 84.8298 1466.65 86.5621C1468.68 87.7401 1470.76 88.8488 1472.79 90.0961C1475.75 88.5716 1478.67 87.0471 1481.63 85.592C1479.71 84.2061 1477.79 82.7509 1475.83 81.3651ZM-67.008 620.47C-69.312 614.095 -71.616 607.651 -73.92 601.206C-75.1104 600.305 -76.2624 599.405 -77.4528 598.504C-75.1488 604.809 -72.8448 611.115 -70.5792 617.282C-69.3888 618.322 -68.1984 619.361 -67.008 620.47ZM-59.52 641.189C-61.824 634.814 -64.0896 628.508 -66.3936 622.064C-67.584 620.955 -68.7744 619.985 -69.9648 618.876C-67.6992 625.043 -65.472 631.072 -63.2448 637.17C-62.016 638.486 -60.7872 639.872 -59.52 641.189ZM-52.1856 661.561C-54.4128 655.394 -56.6016 649.296 -58.8288 643.129C-60.0576 641.812 -61.3248 640.426 -62.5536 639.11C-60.3264 645.138 -58.1376 651.028 -55.9488 657.057C-54.6816 658.512 -53.4528 660.036 -52.1856 661.561ZM-44.8896 681.795C-47.0784 675.766 -49.2672 669.738 -51.4176 663.64C-52.6464 662.185 -53.9136 660.66 -55.1424 659.205C-52.9536 665.095 -50.8032 671.054 -48.6528 676.875C-47.3856 678.538 -46.1568 680.132 -44.8896 681.795ZM-37.5936 701.959C-39.744 696.069 -41.8944 690.11 -44.0448 684.081C-45.2736 682.488 -46.5408 680.825 -47.7696 679.162C-45.6192 684.982 -43.4688 690.803 -41.3184 696.554C-40.0896 698.425 -38.8224 700.158 -37.5936 701.959ZM-30.2208 722.193C-32.3328 716.303 -34.4832 710.552 -36.5952 704.662C-37.824 702.86 -39.0528 701.197 -40.32 699.395C-38.208 705.147 -36.096 710.829 -33.9456 716.511C-32.7168 718.382 -31.488 720.253 -30.2208 722.193ZM-22.8864 742.357C-24.96 736.675 -27.072 730.855 -29.1456 725.103C-30.3744 723.232 -31.6032 721.431 -32.832 719.491C-30.7968 724.965 -28.7616 730.439 -26.7648 735.844C-25.4592 737.992 -24.1536 740.209 -22.8864 742.357ZM-15.8592 761.69C-17.7792 756.424 -19.7376 751.019 -21.696 745.683C-22.9248 743.605 -24.192 741.595 -25.4208 739.516C-23.4624 744.713 -21.5424 749.91 -19.6224 755.107C-18.3552 757.256 -17.088 759.473 -15.8592 761.69ZM-8.5248 781.578C-10.4832 776.242 -12.4416 770.976 -14.4 765.64C-15.6288 763.492 -16.8576 761.344 -18.048 759.196C-16.0896 764.393 -14.1696 769.521 -12.2496 774.648C-11.0208 776.866 -9.79201 779.222 -8.5248 781.578ZM-1.57439 800.495C-3.37918 795.644 -5.14558 790.724 -6.95039 785.874C-8.10239 783.726 -9.25441 781.647 -10.4448 779.43C-8.67841 784.211 -6.8736 788.923 -5.10719 793.635C-3.91679 795.991 -2.76479 798.208 -1.57439 800.495ZM5.33762 819.273C3.68642 814.769 1.9968 810.127 0.30719 805.553C-0.806396 803.336 -1.92001 801.188 -3.0336 799.04C-1.34401 803.474 0.30719 807.979 1.95839 812.344C3.07199 814.631 4.18561 816.987 5.33762 819.273ZM12.3264 838.191C10.752 833.894 9.13921 829.667 7.5648 825.371C6.528 823.223 5.4912 821.075 4.45439 818.996C6.02879 823.154 7.6032 827.311 9.216 831.538C10.2528 833.686 11.2896 835.973 12.3264 838.191ZM19.1616 856.623L15.0528 845.536C14.1312 843.596 13.2096 841.517 12.2496 839.576C13.632 843.18 15.0144 846.852 16.3584 850.456C17.3184 852.465 18.24 854.613 19.1616 856.623ZM25.536 873.807C24.4608 870.897 23.3472 867.918 22.272 864.938C21.5808 863.414 20.8896 861.889 20.1984 860.365C21.2736 863.206 22.3872 866.116 23.4624 868.957C24.1152 870.62 24.8448 872.214 25.536 873.807ZM31.5264 889.884C30.7968 887.874 30.0672 885.934 29.2992 883.924C28.9536 883.162 28.608 882.4 28.2624 881.568C29.0688 883.717 29.9136 885.795 30.72 887.943C30.9888 888.636 31.2576 889.26 31.5264 889.884ZM1491.46 81.0186C1489.57 79.3556 1487.73 77.6232 1485.85 76.0295C1482.78 77.6232 1479.74 79.217 1476.71 80.88C1478.67 82.2659 1480.63 83.7211 1482.59 85.1762C1485.54 83.7903 1488.5 82.4045 1491.46 81.0186ZM1497.87 86.77C1495.99 85.0376 1494.11 83.3746 1492.22 81.7115C1489.27 83.0281 1486.35 84.414 1483.47 85.7999C1485.43 87.255 1487.35 88.7102 1489.31 90.2347C1492.11 89.0567 1494.99 87.948 1497.87 86.77ZM1504.13 92.7985C1502.28 91.0662 1500.48 89.2645 1498.64 87.5322C1495.76 88.6409 1492.92 89.8189 1490.07 90.9969C1491.99 92.5213 1493.88 94.0458 1495.8 95.5703C1498.6 94.6002 1501.36 93.6301 1504.13 92.7985ZM1510.39 98.8964C1508.54 97.0947 1506.74 95.2931 1504.9 93.5608C1502.13 94.4616 1499.4 95.3624 1496.68 96.2632C1498.56 97.7877 1500.44 99.3814 1502.36 100.975C1505.05 100.282 1507.7 99.52 1510.39 98.8964ZM1516.57 105.133C1514.8 103.262 1513 101.46 1511.19 99.6586C1508.54 100.282 1505.89 101.044 1503.24 101.737C1505.09 103.331 1506.93 104.994 1508.77 106.588C1511.39 106.103 1513.96 105.618 1516.57 105.133ZM1522.64 111.577C1520.87 109.706 1519.1 107.835 1517.38 105.964C1514.8 106.38 1512.27 106.934 1509.73 107.419C1511.58 109.083 1513.42 110.676 1515.26 112.409C1517.72 112.131 1520.18 111.854 1522.64 111.577ZM1528.74 118.16C1527.01 116.22 1525.25 114.349 1523.52 112.478C1521.06 112.686 1518.64 113.032 1516.22 113.309C1517.99 114.973 1519.76 116.705 1521.56 118.368C1523.94 118.368 1526.32 118.229 1528.74 118.16ZM1534.62 124.882C1532.93 122.941 1531.28 121.001 1529.59 119.13C1527.21 119.13 1524.9 119.338 1522.56 119.407C1524.33 121.14 1526.13 122.803 1527.9 124.604C1530.16 124.674 1532.35 124.743 1534.62 124.882ZM1540.72 131.811C1539.03 129.801 1537.31 127.93 1535.62 125.99C1533.39 125.852 1531.16 125.713 1528.93 125.644C1530.62 127.376 1532.31 129.108 1534 130.91C1536.23 131.187 1538.46 131.464 1540.72 131.811ZM1546.44 138.879C1544.87 136.939 1543.26 134.929 1541.68 133.058C1539.49 132.712 1537.31 132.365 1535.12 132.019C1536.84 133.82 1538.57 135.483 1540.26 137.354C1542.3 137.839 1544.37 138.324 1546.44 138.879ZM1552.32 146.085C1550.71 144.076 1549.09 142.136 1547.52 140.195C1545.48 139.641 1543.45 139.087 1541.41 138.602C1542.99 140.334 1544.56 142.136 1546.18 143.868C1548.21 144.561 1550.25 145.323 1552.32 146.085ZM1557.96 153.292C1556.47 151.352 1555.01 149.411 1553.51 147.471C1551.51 146.709 1549.48 145.947 1547.44 145.254C1549.06 147.055 1550.67 148.788 1552.28 150.659C1554.16 151.49 1556.08 152.46 1557.96 153.292ZM1563.53 160.637C1562.07 158.697 1560.61 156.826 1559.16 154.886C1557.39 154.054 1555.62 153.223 1553.89 152.46C1555.35 154.123 1556.81 155.925 1558.27 157.657C1560 158.628 1561.77 159.598 1563.53 160.637ZM1569.02 167.982C1567.64 166.111 1566.3 164.31 1564.92 162.439C1563.23 161.469 1561.57 160.568 1559.92 159.598C1561.38 161.33 1562.8 162.993 1564.26 164.725C1565.84 165.903 1567.45 166.873 1569.02 167.982ZM1574.17 175.258C1572.94 173.526 1571.71 171.793 1570.48 170.061C1569.1 169.091 1567.68 168.19 1566.3 167.289C1567.56 168.814 1568.79 170.407 1570.06 172.001C1571.44 173.041 1572.79 174.08 1574.17 175.258ZM1579.62 182.88C1578.47 181.217 1577.32 179.623 1576.17 178.03C1574.86 176.99 1573.56 175.812 1572.29 174.773C1573.36 176.159 1574.48 177.545 1575.55 178.931C1576.9 180.178 1578.28 181.564 1579.62 182.88ZM1584.35 189.81C1583.58 188.632 1582.77 187.454 1582 186.276L1579.24 183.643C1580.12 184.821 1581 185.929 1581.89 187.107C1582.69 188.008 1583.5 188.909 1584.35 189.81ZM1588.15 195.492L1587.19 194.106C1586.88 193.759 1586.53 193.413 1586.23 193.066C1586.57 193.552 1586.88 193.967 1587.23 194.383C1587.53 194.73 1587.84 195.145 1588.15 195.492ZM-156.058 526.646C-156.442 526.3 -156.826 526.023 -157.21 525.676C-156.595 526.438 -155.981 527.131 -155.328 527.893L-154.406 528.794C-154.982 528.101 -155.52 527.408 -156.058 526.646ZM-151.488 530.527C-152.179 529.972 -152.832 529.349 -153.523 528.794C-152.602 530.042 -151.68 531.22 -150.758 532.467C-150.106 533.091 -149.453 533.783 -148.8 534.407C-149.722 533.16 -150.605 531.843 -151.488 530.527ZM-147.226 533.922C-147.994 533.298 -148.8 532.675 -149.568 532.051C-148.378 533.784 -147.226 535.447 -146.074 537.179C-145.229 538.01 -144.422 538.842 -143.578 539.673C-144.768 537.733 -145.997 535.862 -147.226 533.922ZM-142.848 537.387C-143.731 536.694 -144.653 536.001 -145.536 535.239C-144.115 537.525 -142.733 539.673 -141.312 541.891C-140.429 542.722 -139.546 543.554 -138.662 544.455C-140.045 542.099 -141.427 539.812 -142.848 537.387ZM-138.278 540.99C-139.277 540.228 -140.314 539.396 -141.312 538.565C-139.814 541.129 -138.317 543.623 -136.819 546.118C-135.859 547.019 -134.899 547.919 -133.939 548.82C-135.398 546.256 -136.858 543.623 -138.278 540.99ZM-133.786 544.524C-134.861 543.693 -135.898 542.861 -136.973 542.029C-135.398 544.87 -133.862 547.642 -132.326 550.414C-131.29 551.384 -130.253 552.354 -129.216 553.324C-130.714 550.414 -132.25 547.504 -133.786 544.524ZM-129.37 547.781C-130.445 546.949 -131.52 546.256 -132.595 545.425C-130.982 548.543 -129.37 551.661 -127.757 554.71C-126.643 555.75 -125.53 556.858 -124.416 557.828C-126.029 554.502 -127.718 551.176 -129.37 547.781ZM-124.954 551.038C-126.029 550.206 -127.142 549.444 -128.218 548.612C-126.49 552.146 -124.762 555.611 -122.995 559.076C-121.92 560.046 -120.806 561.016 -119.731 561.986C-121.498 558.383 -123.226 554.71 -124.954 551.038ZM-120.538 554.294C-121.651 553.463 -122.765 552.631 -123.878 551.869C-122.112 555.611 -120.307 559.353 -118.541 563.164C-117.427 564.134 -116.352 565.104 -115.238 566.074C-116.966 562.194 -118.771 558.175 -120.538 554.294ZM-116.122 557.482C-117.235 556.72 -118.349 555.819 -119.462 555.057C-117.658 559.006 -115.814 563.095 -114.01 567.044C-112.858 568.084 -111.744 569.054 -110.592 570.024C-112.435 565.936 -114.278 561.709 -116.122 557.482ZM-111.821 560.462C-112.934 559.699 -114.048 558.937 -115.162 558.175C-113.28 562.471 -111.36 566.837 -109.517 571.063C-108.365 572.103 -107.174 573.142 -105.984 574.182C-107.904 569.608 -109.862 565.035 -111.821 560.462ZM-107.443 563.441C-108.557 562.679 -109.709 561.917 -110.822 561.154C-108.826 565.866 -106.829 570.509 -104.832 575.221C-103.68 576.191 -102.528 577.161 -101.338 578.131C-103.411 573.212 -105.408 568.361 -107.443 563.441ZM-103.066 566.421C-104.218 565.659 -105.37 564.827 -106.522 564.065C-104.448 569.054 -102.413 573.974 -100.378 578.894C-99.2256 579.864 -98.0736 580.765 -96.8832 581.735C-98.9568 576.676 -100.992 571.618 -103.066 566.421ZM-98.688 569.331C-99.84 568.569 -100.992 567.807 -102.144 567.044C-100.032 572.311 -97.9584 577.438 -95.8848 582.566C-94.6944 583.536 -93.5424 584.506 -92.352 585.477C-94.464 580.141 -96.576 574.805 -98.688 569.331ZM-94.3872 572.103C-95.5392 571.341 -96.6528 570.648 -97.8048 569.955C-95.6544 575.498 -93.5424 580.903 -91.392 586.377C-90.2016 587.347 -89.0112 588.387 -87.8208 589.288C-90.0096 583.536 -92.1984 577.854 -94.3872 572.103ZM-90.048 574.805C-91.2 574.112 -92.352 573.35 -93.504 572.588C-91.2768 578.409 -89.088 584.229 -86.8608 589.981C-85.6704 590.951 -84.5184 591.852 -83.328 592.752C-85.5552 586.793 -87.7824 580.834 -90.048 574.805ZM-85.7088 577.508C-86.8608 576.815 -88.0512 576.053 -89.2032 575.29C-86.9376 581.388 -84.672 587.417 -82.4064 593.515C-81.216 594.415 -80.064 595.316 -78.8736 596.217C-81.1776 589.981 -83.4432 583.813 -85.7088 577.508ZM-81.408 580.21C-82.56 579.517 -83.712 578.824 -84.9024 578.062C-82.5984 584.368 -80.3328 590.604 -78.0288 596.91C-76.8384 597.811 -75.648 598.712 -74.4576 599.612C-76.7616 593.168 -79.0656 586.724 -81.408 580.21ZM1271.69 280.307C1270.5 282.178 1269.31 284.049 1268.12 285.92C1268.7 285.088 1269.27 284.257 1269.81 283.425C1271.73 280.515 1273.69 277.674 1275.61 274.764C1274.3 276.704 1273 278.506 1271.69 280.307ZM1287.05 257.371C1284.86 260.559 1282.71 263.746 1280.56 267.003C1282.56 264.3 1284.56 261.598 1286.59 258.965C1288.63 256.124 1290.62 253.213 1292.7 250.442C1290.82 252.659 1288.93 255.015 1287.05 257.371ZM1301.8 236.652C1299.19 240.255 1296.58 243.928 1294 247.531C1296.08 245.037 1298.15 242.611 1300.26 240.117C1302.95 236.514 1305.6 232.98 1308.33 229.446C1306.14 231.871 1303.95 234.227 1301.8 236.652ZM1315.97 217.874C1313.01 221.685 1310.05 225.634 1307.14 229.515C1309.52 226.951 1311.9 224.456 1314.28 221.893C1317.2 218.22 1320.08 214.617 1323.03 211.014C1320.65 213.3 1318.31 215.587 1315.97 217.874ZM1329.48 201.035C1326.34 204.846 1323.23 208.796 1320.12 212.746C1322.69 210.251 1325.22 207.826 1327.83 205.401C1330.94 201.728 1334.05 198.125 1337.16 194.522C1334.55 196.67 1332.02 198.887 1329.48 201.035ZM1343.08 185.098C1339.74 188.978 1336.4 192.859 1333.09 196.739C1335.55 194.66 1338.01 192.72 1340.51 190.71C1343.81 187.038 1347.15 183.435 1350.53 179.831C1348.03 181.633 1345.54 183.296 1343.08 185.098ZM1355.87 171.031C1352.37 174.773 1348.88 178.515 1345.46 182.395C1348.11 180.524 1350.72 178.584 1353.41 176.782C1356.75 173.248 1360.13 169.853 1363.55 166.458C1360.97 167.844 1358.44 169.437 1355.87 171.031ZM1368.54 157.727C1365.04 161.261 1361.59 164.864 1358.13 168.537C1360.7 167.012 1363.28 165.488 1365.89 164.032C1369.19 160.776 1372.49 157.588 1375.83 154.401C1373.38 155.509 1370.96 156.549 1368.54 157.727ZM1380.48 145.877C1377.14 149.134 1373.8 152.46 1370.5 155.786C1372.99 154.608 1375.49 153.43 1378.02 152.322C1381.29 149.273 1384.55 146.155 1387.85 143.175C1385.4 144.007 1382.94 144.977 1380.48 145.877ZM1392.46 134.652C1389.04 137.77 1385.66 140.958 1382.32 144.214C1384.78 143.314 1387.28 142.482 1389.77 141.651C1393.04 138.74 1396.3 135.968 1399.6 133.127C1397.18 133.613 1394.8 134.028 1392.46 134.652ZM1404.06 124.396C1400.64 127.307 1397.22 130.217 1393.88 133.266C1396.3 132.712 1398.72 132.227 1401.1 131.742C1404.4 128.97 1407.78 126.337 1411.12 123.634C1408.78 123.842 1406.44 124.119 1404.06 124.396ZM1415.42 114.834C1412.08 117.536 1408.74 120.377 1405.44 123.218C1407.82 122.941 1410.16 122.733 1412.54 122.526C1415.73 120.031 1418.96 117.467 1422.18 115.042C1419.96 114.973 1417.69 114.834 1415.42 114.834ZM1426.52 106.034C1423.22 108.597 1419.96 111.231 1416.69 113.864C1419 113.864 1421.26 113.933 1423.56 114.072C1426.75 111.716 1429.94 109.36 1433.16 107.073C1430.94 106.657 1428.75 106.311 1426.52 106.034ZM1437.47 97.857C1434.16 100.213 1430.86 102.638 1427.64 105.133C1429.86 105.41 1432.09 105.826 1434.32 106.241C1437.54 103.955 1440.77 101.807 1444.03 99.6586C1441.84 99.035 1439.65 98.4806 1437.47 97.857ZM1448.14 90.2347C1444.92 92.4521 1441.73 94.808 1438.54 97.164C1440.73 97.7877 1442.96 98.2727 1445.15 98.9657C1448.22 96.9561 1451.29 94.8773 1454.4 92.8678C1452.29 91.967 1450.21 91.0662 1448.14 90.2347ZM1458.78 83.236C1455.55 85.3148 1452.29 87.3936 1449.1 89.611C1451.21 90.4425 1453.29 91.3434 1455.4 92.2442C1458.51 90.304 1461.66 88.5023 1464.84 86.6314C1462.81 85.4534 1460.81 84.2754 1458.78 83.236ZM1469.07 76.6531C1465.92 78.5933 1462.81 80.6028 1459.7 82.6124C1461.73 83.7211 1463.73 84.899 1465.77 86.077C1468.84 84.2754 1471.91 82.4738 1475.02 80.7414C1473.02 79.3556 1471.03 78.039 1469.07 76.6531ZM1479.24 70.6245C1476.13 72.4262 1473.02 74.2971 1469.91 76.168C1471.91 77.5539 1473.91 78.8705 1475.87 80.3257C1478.9 78.6626 1481.97 77.0689 1485.04 75.4751C1483.12 73.7428 1481.2 72.2183 1479.24 70.6245ZM-69.9648 603.077C-72.3456 596.286 -74.7264 589.496 -77.1456 582.635C-78.2976 581.943 -79.4496 581.319 -80.6016 580.626C-78.2592 587.209 -75.9168 593.723 -73.5744 600.305C-72.3456 601.206 -71.1552 602.176 -69.9648 603.077ZM-62.4384 624.489C-64.7424 617.906 -67.1232 611.185 -69.4656 604.532C-70.656 603.631 -71.8464 602.661 -73.0368 601.761C-70.6944 608.274 -68.3904 614.788 -66.0864 621.232C-64.8576 622.41 -63.6288 623.449 -62.4384 624.489ZM-54.8352 646.039C-57.1776 639.387 -59.52 632.804 -61.8624 626.152C-63.0528 625.043 -64.2816 624.004 -65.472 622.895C-63.1296 629.409 -60.8256 635.853 -58.4832 642.297C-57.2544 643.614 -56.064 644.792 -54.8352 646.039ZM-47.2704 667.451C-49.5744 660.937 -51.8784 654.424 -54.2208 647.841C-55.4112 646.594 -56.64 645.416 -57.8304 644.168C-55.5648 650.474 -53.3376 656.641 -51.072 662.878C-49.8048 664.402 -48.5376 665.996 -47.2704 667.451ZM-39.8592 688.447C-42.0864 682.211 -44.3136 675.905 -46.5408 669.599C-47.808 668.144 -49.0752 666.55 -50.304 665.095C-48.0768 671.262 -45.888 677.429 -43.6608 683.458C-42.3936 685.052 -41.1264 686.784 -39.8592 688.447ZM-32.4096 709.304C-34.5984 703.137 -36.8256 696.901 -39.0144 690.664C-40.2816 689.001 -41.5488 687.338 -42.816 685.675C-40.6272 691.773 -38.4384 697.802 -36.2496 703.83C-34.944 705.701 -33.6768 707.503 -32.4096 709.304ZM-24.96 730.231C-27.1488 724.133 -29.2992 718.035 -31.488 711.938C-32.7552 710.136 -34.0224 708.334 -35.2896 706.533C-33.1008 712.492 -30.9504 718.451 -28.8 724.41C-27.4944 726.351 -26.2272 728.291 -24.96 730.231ZM-17.5104 751.088C-19.6224 745.129 -21.7728 739.101 -23.9232 733.072C-25.1904 731.132 -26.4192 729.261 -27.6864 727.321C-25.536 733.211 -23.424 739.101 -21.2736 744.921C-20.0448 747 -18.7776 749.01 -17.5104 751.088ZM-10.1376 771.807C-12.2112 765.987 -14.2848 760.166 -16.3968 754.345C-17.664 752.266 -18.8928 750.326 -20.1216 748.247C-18.0864 753.86 -16.0512 759.404 -14.016 764.947C-12.7104 767.165 -11.4048 769.521 -10.1376 771.807ZM-2.84161 792.041C-4.83841 786.497 -6.79681 781.093 -8.79361 775.549C-10.0608 773.332 -11.328 771.045 -12.5952 768.828C-10.5984 774.302 -8.60159 779.707 -6.56639 785.181C-5.29919 787.537 -4.0704 789.754 -2.84161 792.041ZM4.416 812.205C2.496 806.87 0.576004 801.534 -1.34399 796.199C-2.5728 793.981 -3.7632 791.764 -4.992 789.546C-3.1104 794.674 -1.1904 799.871 0.652802 804.93C1.92001 807.355 3.18719 809.78 4.416 812.205ZM11.5968 832.162C9.79201 827.173 7.94881 822.045 6.10561 816.987C4.91521 814.7 3.6864 812.275 2.496 809.988C4.3008 814.908 6.14401 819.897 7.94881 824.748C9.17761 827.242 10.4064 829.737 11.5968 832.162ZM18.7776 851.911C17.0496 847.199 15.36 842.487 13.6704 837.775C12.5568 835.488 11.4048 833.132 10.2912 830.845C12.0192 835.557 13.7472 840.2 15.5136 844.912C16.5888 847.268 17.664 849.555 18.7776 851.911ZM25.6896 870.966C24.1536 866.74 22.6176 862.443 21.0432 858.216C20.0448 856.068 19.0464 853.99 18.0096 851.841C19.5456 855.999 21.12 860.226 22.656 864.384C23.6928 866.601 24.6912 868.749 25.6896 870.966ZM32.3712 889.399C31.0656 885.795 29.7216 882.123 28.416 878.45C27.5328 876.441 26.6112 874.5 25.728 872.56C27.072 876.233 28.416 879.836 29.76 883.439C30.6048 885.38 31.488 887.389 32.3712 889.399ZM38.9376 907.415C37.8624 904.435 36.7872 901.525 35.712 898.545L33.7152 893.972C34.8288 896.952 35.9424 899.931 37.056 902.911L38.9376 907.415ZM45.12 924.253L43.2 919.056L42.1632 916.562C42.8544 918.363 43.5456 920.234 44.2368 922.036L45.12 924.253ZM65.664 978.372L66.0864 979.48C418.214 1881.82 599.578 2079.52 722.189 1941.97C806.477 1847.38 863.04 1594.39 928.243 1302.94C1002.93 968.878 1088.95 584.368 1240.93 329.644C1241.74 328.258 1242.55 326.803 1243.35 325.348C1097.55 561.432 1010.19 918.71 933.158 1234C864.461 1515.12 803.942 1762.85 717.389 1861.45C590.938 2005.65 409.114 1831.38 65.664 978.372ZM56.256 952.941C56.9472 954.812 57.6 956.544 58.2528 958.346C406.541 1827.63 589.939 2005.58 717.043 1860.69C803.443 1762.22 863.923 1514.64 932.582 1233.65C1011.88 909.217 1102.08 540.297 1255.6 304.629C1258.29 300.194 1261.06 295.829 1263.78 291.463C1112.83 508.768 1020.06 856.553 937.344 1166.71C865.498 1436.13 801.254 1677.13 712.973 1779.48C581.683 1931.64 397.363 1776.98 56.256 952.941ZM47.8848 930.074C48.9216 932.915 49.9584 935.756 50.9952 938.597C395.482 1774.07 580.877 1931.37 712.666 1778.58C800.794 1676.37 865.037 1435.5 936.845 1166.23C1021.02 850.594 1115.6 495.949 1271.35 279.406C1274.5 274.556 1277.72 269.775 1280.95 264.993C1126.77 463.312 1029.24 798.693 941.299 1101.23C866.726 1357.75 799.066 1590.58 709.517 1696.25C573.235 1857.29 386.381 1723.49 47.8848 930.074ZM39.552 907.346C40.896 911.018 42.2784 914.76 43.6224 918.502C384.806 1721.06 572.544 1856.88 709.248 1695.49C798.682 1589.89 866.342 1357.2 940.839 1100.81C1029.96 794.189 1128.96 453.888 1286.75 256.47C1290.05 251.689 1293.39 247.046 1296.73 242.404C1140.1 421.736 1038.03 743.813 944.909 1037.89C868.186 1280.15 797.491 1503.34 707.251 1611.99C565.632 1782.52 375.936 1670.62 39.552 907.346ZM31.5264 885.31C33.0624 889.537 34.5984 893.764 36.1344 897.991C374.63 1668.54 565.018 1782.04 706.944 1611.16C797.069 1502.65 867.725 1279.59 944.41 1037.41C1038.6 740.071 1141.9 414.044 1301.53 235.751C1304.95 231.109 1308.4 226.535 1311.9 221.962C1153 382.238 1046.4 691.08 947.943 976.431C869.722 1203.09 796.608 1414.99 706.445 1525.93C559.142 1707.13 366.298 1618.65 31.5264 885.31ZM23.7312 863.829C25.4208 868.472 27.1104 873.184 28.8 877.827C365.261 1616.91 558.605 1706.58 706.138 1525.1C796.224 1414.3 869.299 1202.54 947.482 975.877C1046.82 687.893 1154.46 376.14 1315.7 216.903C1319.16 212.469 1322.69 208.103 1326.22 203.807C1165.32 345.027 1054.2 640.496 950.285 916.977C871.488 1126.66 796.762 1325.33 707.597 1437.58C554.074 1630.91 357.696 1567.78 23.7312 863.829ZM15.9744 842.487C17.8176 847.545 19.6224 852.534 21.4272 857.523C356.736 1566.26 553.574 1630.29 707.251 1436.82C796.378 1324.63 871.027 1126.04 949.824 916.423C1054.5 638.001 1166.44 340.315 1329.18 200.065C1332.79 195.7 1336.44 191.473 1340.12 187.246C1177.19 309.341 1061.41 591.852 951.744 859.533C873.485 1050.51 798.336 1234 711.322 1346.25C550.925 1553.44 350.285 1518.38 15.9744 842.487ZM8.256 821.144C10.176 826.48 12.096 831.815 14.0544 837.151C349.478 1517.13 550.464 1552.82 711.053 1345.56C797.99 1233.37 873.101 1049.95 951.322 859.048C1061.72 589.634 1178.27 305.114 1342.85 184.197C1346.34 180.247 1349.84 176.367 1353.41 172.556C1188.48 275.387 1067.87 545.217 952.128 804.237C875.981 974.63 801.946 1140.38 718.733 1250.7C550.349 1474.1 344.525 1470.77 8.256 821.144ZM0.537613 799.663C2.53441 805.276 4.5696 810.82 6.528 816.363C343.795 1469.53 549.888 1473.47 718.387 1249.86C801.523 1139.55 875.558 973.937 951.667 803.544C1068.02 543.138 1189.32 271.784 1355.64 169.992C1359.13 166.25 1362.62 162.508 1366.2 158.905C1199.12 242.334 1073.36 500.037 951.091 750.603C879.206 897.922 808.55 1042.81 731.366 1148.35C553.536 1391.64 341.261 1425.73 0.537613 799.663ZM-7.06561 778.459C-5.03041 784.141 -2.99519 789.824 -0.959991 795.506C340.57 1424.62 553.075 1391.02 731.059 1147.59C808.166 1042.12 878.822 897.298 950.707 749.98C1073.59 498.097 1200 238.939 1368.38 156.757C1371.76 153.361 1375.1 149.897 1378.52 146.57C1209.1 210.251 1077.77 456.452 948.48 698.98C884.122 819.689 820.301 939.429 752.486 1035.33C562.714 1303.71 341.99 1385.33 -7.06561 778.459ZM-14.8608 756.77C-12.672 762.868 -10.5216 768.828 -8.3712 774.856C341.376 1384.36 562.253 1303.01 752.102 1034.57C819.878 938.666 883.738 818.927 948.058 698.287C1077.93 454.65 1209.83 207.41 1380.33 144.838C1383.78 141.512 1387.28 138.255 1390.77 135.068C1218.51 178.238 1081 413.905 943.795 649.088C892.762 736.606 841.766 823.985 789.043 901.386C582.835 1204.13 350.17 1353.67 -14.8608 756.77ZM-22.5408 735.22C-20.352 741.318 -18.1632 747.485 -16.0128 753.583C349.594 1352.83 582.374 1203.51 788.621 900.624C841.344 823.223 892.339 735.844 943.373 648.326C1081.08 412.242 1219.08 175.674 1392.27 133.543C1395.65 130.494 1399.1 127.445 1402.56 124.535C1227.07 146.501 1082.65 372.398 936.691 600.79C680.448 1001.86 419.443 1409.93 -22.5408 735.22ZM-30.1824 713.808C-27.9552 720.045 -25.7664 726.212 -23.5392 732.379C418.982 1409.45 680.064 1001.24 936.384 600.097C1082.8 370.943 1227.72 144.284 1403.98 123.426C1407.36 120.516 1410.7 117.675 1414.12 114.834C1234.91 114.557 1082.65 331.792 926.861 554.087C665.626 926.886 394.483 1313.55 -30.1824 713.808ZM-37.824 692.258C-35.5584 698.564 -33.3312 704.87 -31.104 711.175C393.984 1312.99 665.242 926.193 926.515 553.324C1082.76 330.337 1235.44 112.478 1415.35 113.795C1418.65 111.092 1421.95 108.459 1425.29 105.895C1241.78 82.058 1080.54 291.671 913.613 508.699C648.269 853.782 368.525 1217.37 -37.824 692.258ZM-45.4272 670.777C-43.1616 677.152 -40.896 683.596 -38.6304 689.971C368.064 1216.74 647.885 853.089 913.344 507.868C1080.69 290.216 1242.36 80.1178 1426.48 104.925C1429.79 102.361 1433.09 99.9358 1436.43 97.5105C1247.88 48.312 1076.2 251.62 896.563 464.421C627.955 782.686 341.606 1121.88 -45.4272 670.777ZM-53.184 648.88C-50.8416 655.532 -48.4992 662.185 -46.1184 668.768C341.184 1121.26 627.61 781.924 896.256 463.658C1076.31 250.303 1248.42 46.5797 1437.5 96.8176C1440.73 94.4616 1443.96 92.0363 1447.22 89.8189C1252.92 13.2494 1069.06 211.776 874.867 421.458C604.186 713.67 313.536 1027.43 -53.184 648.88ZM-60.9408 626.983C-58.56 633.774 -56.2176 640.357 -53.8368 647.079C313.075 1026.81 603.802 712.977 874.522 420.627C1069.09 210.459 1253.38 11.517 1448.14 89.126C1451.37 86.9086 1454.63 84.8298 1457.89 82.6816C1256.95 -24.0999 1058.61 171.447 847.719 379.466C576.461 646.94 284.352 934.855 -60.9408 626.983ZM-68.5824 605.225C-66.24 611.947 -63.8592 618.737 -61.5168 625.32C283.891 934.093 576.077 646.109 847.45 378.566C1058.76 170.2 1257.41 -25.6937 1458.78 82.1273C1461.93 80.1178 1465.04 78.039 1468.22 76.0987C1259.75 -63.9438 1044.33 130.633 814.31 338.583C544.205 582.635 254.054 844.843 -68.5824 605.225ZM-76.3392 583.121C-73.92 590.05 -71.5008 596.841 -69.0816 603.77C253.632 844.15 543.898 581.873 814.042 337.682C1044.44 129.455 1260.25 -65.4682 1469.07 75.6137C1472.18 73.6735 1475.33 71.8718 1478.48 70.0009C1261.36 -107.322 1025.32 89.1952 773.338 299.155C506.765 521.172 222.374 758.018 -76.3392 583.121ZM-240 106.311C-182.362 277.397 -128.064 435.594 -76.8 581.804C221.952 757.256 506.458 520.34 773.107 298.254C1025.47 88.0173 1261.86 -108.777 1479.28 69.5159C1539.11 34.9383 1605.66 14.6353 1679.96 12.0021V12.9722C1605.93 15.6054 1539.65 35.7698 1480.01 70.0702C1481.97 71.6639 1483.93 73.1884 1485.89 74.9208C1543.99 44.9166 1608.35 28.8405 1679.96 29.8799V30.85C1608.65 29.8106 1544.56 45.8174 1486.62 75.5444C1488.5 77.1382 1490.38 78.9398 1492.22 80.6028C1548.67 55.1028 1610.92 43.115 1679.92 47.6883V48.6585C1611.23 44.0851 1549.25 56.0036 1492.99 81.2958C1494.91 83.0281 1496.79 84.6912 1498.71 86.4235C1553.47 65.3582 1613.61 57.3895 1679.96 65.4275V66.3976C1613.91 58.3596 1554.05 66.1898 1499.52 87.1164C1501.36 88.8488 1503.17 90.6504 1505.01 92.4521C1558.12 75.683 1616.18 71.664 1679.96 83.0974V84.0675C1616.49 72.6341 1558.66 76.5838 1505.78 93.145C1507.62 94.9466 1509.47 96.679 1511.31 98.5499C1562.73 86.0078 1618.71 85.8692 1679.96 100.698V101.668C1619.06 86.9086 1563.34 86.9779 1512.12 99.3121C1513.92 101.114 1515.69 102.985 1517.49 104.856C1567.26 96.4711 1621.21 100.074 1679.96 118.16V119.13C1621.52 101.114 1567.83 97.3719 1518.3 105.687C1520.06 107.558 1521.87 109.429 1523.64 111.3C1571.79 106.934 1623.71 114.28 1679.96 135.622V136.592C1624.01 115.458 1572.36 107.974 1524.48 112.201C1526.25 114.072 1527.97 116.012 1529.74 117.952C1576.24 117.606 1626.16 128.554 1679.96 152.945V153.985C1626.47 129.732 1576.86 118.714 1530.62 118.992C1532.35 120.932 1534.04 122.872 1535.77 124.812C1580.66 128.277 1628.54 142.759 1680 170.2V171.239C1628.93 144.007 1581.35 129.524 1536.73 125.921C1538.46 127.93 1540.15 129.871 1541.88 131.88C1585.08 139.156 1631 157.034 1680 187.384V188.424C1631.35 158.281 1585.77 140.473 1542.84 133.058C1544.45 134.998 1546.1 137.077 1547.71 139.017C1589.34 149.966 1633.31 171.17 1680 204.361V205.401C1633.69 172.486 1590.11 151.352 1548.79 140.265C1550.44 142.274 1552.09 144.284 1553.74 146.363C1593.72 160.914 1635.69 185.306 1680 221.2V222.308C1636.11 186.691 1594.48 162.439 1554.89 147.818C1556.43 149.758 1557.93 151.837 1559.42 153.777C1597.82 171.793 1637.91 199.372 1680 237.969V239.077C1638.34 200.827 1598.67 173.456 1560.61 155.371C1562.15 157.38 1563.65 159.32 1565.18 161.33C1601.97 182.742 1640.14 213.3 1680 254.461V255.569C1640.68 214.894 1602.93 184.543 1566.6 163.132C1567.99 165.003 1569.41 166.943 1570.79 168.883C1606 193.552 1642.37 227.09 1680 270.745V271.923C1642.91 228.891 1607.08 195.7 1572.36 171.1C1573.75 172.971 1575.09 174.912 1576.47 176.852C1610.07 204.639 1644.56 240.948 1680 286.89V288.068C1645.21 243.027 1611.42 207.202 1578.43 179.623C1579.7 181.494 1581 183.296 1582.27 185.167C1614.22 215.933 1646.75 254.738 1679.96 302.758V304.006C1647.48 257.025 1615.64 218.844 1584.38 188.354C1585.42 189.879 1586.46 191.473 1587.49 192.997C1617.95 226.674 1648.74 268.112 1679.96 318.28V319.597C1649.7 270.883 1619.87 230.416 1590.37 197.293C1591.26 198.61 1592.14 199.927 1593.06 201.312C1621.9 237.692 1650.85 281.485 1680 333.525V334.911C1652.43 285.643 1625.01 243.789 1597.71 208.519C1598.02 209.004 1598.28 209.489 1598.59 209.905C1625.82 248.779 1652.93 294.651 1679.96 348.284V349.739C1656 302.065 1631.96 260.559 1607.85 224.664C1632.15 264.439 1656.19 310.242 1679.96 362.628V364.222C1653.04 304.837 1625.82 253.976 1598.21 210.667C1594.41 205.262 1590.64 199.996 1586.84 194.868C1582.89 190.018 1578.89 185.236 1574.94 180.663C1570.91 176.436 1566.91 172.417 1562.92 168.467C1558.73 164.864 1554.59 161.399 1550.44 158.004C1545.87 154.747 1541.3 151.698 1536.73 148.719C1531.93 146.085 1527.13 143.591 1522.37 141.235C1517.3 139.225 1512.27 137.354 1507.24 135.622C1501.94 134.236 1496.64 133.127 1491.42 132.088C1486.81 131.534 1482.2 131.118 1477.63 130.841C1471.87 130.91 1466.19 131.118 1460.54 131.534C1454.44 132.435 1448.41 133.474 1442.46 134.86C1436.04 136.661 1429.71 138.74 1423.41 141.027C1416.65 143.868 1409.97 146.986 1403.4 150.382C1396.3 154.401 1389.27 158.697 1382.36 163.27C1374.91 168.537 1367.54 174.219 1360.32 180.109C1352.52 186.83 1344.88 193.898 1337.36 201.243C1329.22 209.558 1321.23 218.22 1313.4 227.159C1304.37 237.899 1295.5 249.125 1286.86 260.766C1275.88 275.942 1265.2 291.671 1254.84 308.094C1243.55 326.387 1232.64 345.443 1222.04 365.123C1066.56 658.997 986.995 1086.26 919.834 1447.28C875.789 1683.85 837.082 1891.94 785.741 2015.42H785.05C836.467 1892.22 875.213 1683.92 919.334 1447C980.429 1118.83 1051.7 735.913 1180.92 448.136C1059 714.986 986.995 1067.34 924.288 1374.32C864.499 1667.01 813.12 1918.48 734.899 2015.49H733.939C812.39 1919.24 863.846 1667.36 923.789 1374.04C992.602 1037.13 1072.59 645.623 1217.47 372.26C1080.23 625.875 999.437 987.172 928.742 1303.22C863.539 1594.88 806.899 1848.01 722.496 1942.73C601.382 2078.69 423.168 1888.41 80.64 1018.28C308.122 1613.79 462.95 1913.42 575.77 2015.7H574.618C464.41 1914.88 314.304 1626.61 96 1060C286.042 1567.51 424.358 1867.06 529.152 2015.63H528.384C419.482 1860.83 274.445 1543.53 73.0368 1000.13C68.1216 987.172 63.1296 974.006 58.1376 960.771C53.3376 948.437 48.5376 936.033 43.6608 923.491C39.4368 912.889 35.2128 902.149 30.9504 891.339C26.1504 879.559 21.3504 867.71 16.512 855.653C12.4032 845.813 8.2944 835.973 4.1472 825.926C-0.345596 815.462 -4.87679 804.722 -9.4464 793.981C-13.7472 784.211 -18.048 774.51 -22.3872 764.601C-26.4576 755.662 -30.5664 746.515 -34.6368 737.438C-38.8608 728.429 -43.0464 719.56 -47.3088 710.413C-51.2256 702.375 -55.1424 694.198 -59.0976 686.022C-63.0912 678.191 -67.008 670.431 -71.04 662.393C-74.7264 655.394 -78.4896 648.118 -82.2144 640.981C-86.208 633.774 -90.2016 626.498 -94.1952 619.153C-97.8432 612.917 -101.491 606.611 -105.178 600.236C-108.941 594.138 -112.704 588.179 -116.467 581.943C-119.923 576.676 -123.379 571.549 -126.874 566.213C-130.099 561.709 -133.325 557.205 -136.55 552.562C-139.738 548.474 -142.963 544.316 -146.15 540.089C-149.299 536.417 -152.486 532.744 -155.635 529.002C-158.746 525.884 -161.856 522.627 -164.966 519.37C-189.888 497.681 -214.886 473.082 -240 445.157V443.979C-216.883 469.687 -193.843 492.623 -170.88 512.857C-193.766 488.535 -216.806 461.579 -240 431.783V430.605C-214.694 463.173 -189.619 492.277 -164.698 518.262C-164.352 518.539 -164.006 518.816 -163.661 519.162C-188.813 488.743 -214.272 455.135 -240 417.994V416.746C-213.12 455.551 -186.547 490.544 -160.282 522.004C-159.629 522.558 -158.938 523.112 -158.285 523.667C-185.126 487.495 -212.352 447.651 -240 403.719V402.403C-211.469 447.721 -183.398 488.743 -155.789 525.815C-154.944 526.508 -154.138 527.27 -153.293 527.893C-181.67 485.902 -210.547 439.752 -240 389.029V387.643C-209.818 439.613 -180.25 486.872 -151.219 529.695C-150.336 530.388 -149.453 531.081 -148.608 531.774C-178.368 483.961 -208.858 431.506 -240 374.062V372.676C-208.243 431.229 -177.254 484.585 -146.918 533.091C-145.92 533.853 -144.96 534.615 -144 535.447C-175.181 481.813 -207.168 422.983 -240 358.748V357.292C-206.669 422.567 -174.182 482.229 -142.541 536.486C-141.466 537.317 -140.39 538.218 -139.315 539.05C-171.917 479.527 -205.478 414.321 -240 343.226V341.701C-204.979 413.836 -170.995 479.873 -137.971 540.158C-136.896 540.99 -135.782 541.891 -134.669 542.722C-168.691 477.101 -203.789 405.452 -240 327.358V325.833C-203.328 404.897 -167.846 477.378 -133.478 543.692C-132.403 544.524 -131.328 545.286 -130.214 546.118C-165.581 474.399 -202.138 396.374 -240 311.351V309.757C-201.715 395.681 -164.774 474.607 -129.062 546.88C-127.949 547.711 -126.835 548.543 -125.722 549.305C-162.432 471.696 -200.486 387.158 -240 295.136V293.542C-200.102 386.465 -161.664 471.835 -124.646 550.206C-123.533 551.038 -122.381 551.869 -121.267 552.701C-159.322 468.925 -198.835 377.803 -240 278.783V277.12C-198.451 377.11 -158.592 468.994 -120.192 553.463C-119.04 554.294 -117.926 555.195 -116.774 555.957C-156.173 466.014 -197.184 368.31 -240 262.222V260.559C-196.838 367.548 -155.482 466.084 -115.814 556.65C-114.701 557.413 -113.587 558.175 -112.435 558.937C-153.101 462.965 -195.571 358.678 -240 245.522V243.859C-195.226 357.916 -152.448 462.965 -111.475 559.63C-110.323 560.392 -109.21 561.154 -108.058 561.986C-150.029 459.847 -193.958 348.908 -240 228.753V227.02C-193.651 348.146 -149.376 459.847 -107.136 562.61C-105.984 563.372 -104.832 564.203 -103.642 564.966C-146.957 456.66 -192.346 339.138 -240 211.776V210.043C-192 338.306 -146.304 456.66 -102.72 565.589C-101.568 566.352 -100.378 567.183 -99.2256 567.945C-143.846 453.472 -190.694 329.229 -240 194.73V192.928C-190.387 328.328 -143.232 453.334 -98.3424 568.5C-97.1904 569.262 -96.0384 569.955 -94.8864 570.648C-140.813 450.007 -189.12 319.181 -240 177.614V175.812C-188.774 318.349 -140.198 449.938 -94.0416 571.271C-92.8896 572.034 -91.7376 572.727 -90.5856 573.489C-137.741 446.543 -187.507 309.133 -240 160.36V158.558C-187.162 308.233 -137.165 446.473 -89.7024 573.974C-88.5504 574.736 -87.36 575.429 -86.208 576.191C-134.707 443.078 -185.894 298.947 -240 143.036V141.166C-185.549 297.977 -134.093 442.87 -85.3632 576.676C-84.2112 577.369 -83.0208 578.131 -81.8688 578.824C-131.635 439.544 -184.243 288.761 -240 125.644V123.773C-183.974 287.791 -131.059 439.336 -81.0624 579.309C-79.9104 580.002 -78.7584 580.626 -77.6064 581.319C-128.64 435.802 -182.669 278.367 -240 108.182V106.311Z" fill="url(#paint0_linear_181_221)" fill-opacity="0.8"/>
<defs>
<linearGradient id="paint0_linear_181_221" x1="720" y1="0" x2="720" y2="2015.7" gradientUnits="userSpaceOnUse">
<stop stop-color="#B3B3B3"/>
<stop offset="1" stop-color="#B3B3B3" stop-opacity="0"/>
</linearGradient>
</defs>
</svg>
